<svg width="1440" height="900" viewBox="0 0 1440 900" fill="none" xmlns="http://www.w3.org/2000/svg">
<g clip-path="url(#clip0_143_2)">
<path d="M194.219 806.781C176.826 805.024 0 806.781 0 806.781V897H1136V864.836C1136 864.836 1064.06 853.845 1051.5 851.892C1038.94 849.939 952.899 839.926 950 839.341C947.101 838.755 818 828.358 818 828.358L677.35 822.599C677.35 822.599 458.009 816.74 425.156 813.811C392.303 810.882 211.612 808.539 194.219 806.781Z" fill="#424B50" stroke="#424B50"/>
<path d="M1123.68 776H1177V897H168L1086.46 872.597V862.937H1100.55V826.84H1111.11V840.059H1123.68V776Z" fill="#373F44" stroke="#373F44"/>
<path d="M256.5 736.5C188 733.5 0 746.5 0 746.5V768.5H832L993.5 755.5C993.5 755.5 783.401 739.547 648.5 736.5C496.024 733.056 325 739.5 256.5 736.5Z" fill="#909FAA" stroke="#909FAA" stroke-width="2"/>
<path d="M765.355 757.803L-0.5 768V813C306.062 813 1134.44 806.5 1441 806.5V757.803C1441 757.803 940.448 753.24 901.052 754.608C861.656 755.977 765.355 757.803 765.355 757.803Z" fill="#6F7F8B" stroke="#6F7F8B"/>
<path d="M182.947 816.759C167.14 818.11 86 820.473 86 820.473V872.301L1440 882V767H1247.37L1110.29 769.715C1110.29 769.715 1029.45 771.525 996.817 773.335C964.181 775.145 945.101 776.357 908.447 778.162C871.793 779.967 801.499 781.481 801.499 781.481L670.841 785.361C670.841 785.361 582.324 791.1 577.056 791.438C571.787 791.776 483.27 800.216 483.27 800.216L404.238 806.631L323.098 811.358C323.098 811.358 198.753 815.409 182.947 816.759Z" fill="#596770" stroke="#596770"/>
<path d="M194.219 809.781C176.826 808.024 0 809.781 0 809.781V900H1136V867.836C1136 867.836 1064.06 856.845 1051.5 854.892C1038.94 852.939 952.899 842.926 950 842.341C947.101 841.755 818 831.358 818 831.358L677.35 825.599C677.35 825.599 458.009 819.74 425.156 816.811C392.303 813.882 211.612 811.539 194.219 809.781Z" fill="#424B50" stroke="#424B50"/>
<path d="M176 900H1440V876.339C1440 876.339 1362.01 869.353 1311.95 865.98C1223.4 860.013 1173.6 858.413 1084.86 856.092C729.296 846.789 176 900 176 900Z" fill="#373F44" stroke="#373F44"/>
</g>
<defs>
<clipPath id="clip0_143_2">
<rect width="1440" height="900" fill="white"/>
</clipPath>
</defs>
</svg>
