<svg width="1440" height="900" viewBox="0 0 1440 900" fill="none" xmlns="http://www.w3.org/2000/svg">
<g clip-path="url(#clip0_108_2)">
<path d="M31 752L88.3404 516L141 752" stroke="#93A1A9" stroke-width="3"/>
<path d="M35.6094 733.018L117.596 648.466L71.0797 589.222" stroke="#93A1A9" stroke-width="2"/>
<path d="M136.984 733.018L56.1589 648.466L103.845 588.94" stroke="#93A1A9" stroke-width="2"/>
<path d="M103.846 589.222L77.8085 563.268L92.847 535.908" stroke="#93A1A9"/>
<path d="M71.3726 588.94L97.9949 563.833L83.5021 535.908" stroke="#93A1A9"/>
<ellipse cx="102" cy="519.5" rx="8" ry="13.5" fill="#93A1A9"/>
<ellipse cx="102" cy="519.5" rx="6" ry="11.5" fill="#85939B"/>
<ellipse cx="74" cy="519.5" rx="8" ry="13.5" fill="#93A1A9"/>
<ellipse cx="74" cy="519.5" rx="6" ry="11.5" fill="#85939B"/>
<path d="M95.1831 521.575L87.0061 521.575L81.1657 521.575" stroke="#93A1A9"/>
<path d="M95.1831 516.227L90.5107 516.212L79.9976 516.212" stroke="#93A1A9"/>
<path d="M194.219 806.781C176.826 805.024 0 806.781 0 806.781V897H1136V864.836C1136 864.836 1064.06 853.845 1051.5 851.892C1038.94 849.939 952.899 839.926 950 839.341C947.101 838.755 818 828.358 818 828.358L677.35 822.599C677.35 822.599 458.009 816.74 425.156 813.811C392.303 810.882 211.612 808.539 194.219 806.781Z" fill="#424B50" stroke="#424B50"/>
<path d="M1123.68 776H1177V897H168L1086.46 872.597V862.937H1100.55V826.84H1111.11V840.059H1123.68V776Z" fill="#373F44" stroke="#373F44"/>
<path d="M256.5 736.5C188 733.5 0 746.5 0 746.5V768.5H832L993.5 755.5C993.5 755.5 783.401 739.547 648.5 736.5C496.024 733.056 325 739.5 256.5 736.5Z" fill="#909FAA" stroke="#909FAA" stroke-width="2"/>
<path d="M765.355 757.803L-0.5 768V813C306.062 813 1134.44 806.5 1441 806.5V757.803C1441 757.803 940.448 753.24 901.052 754.608C861.656 755.977 765.355 757.803 765.355 757.803Z" fill="#6F7F8B" stroke="#6F7F8B"/>
<path d="M182.947 816.759C167.14 818.11 86 820.473 86 820.473V872.301L1440 882V767H1247.37L1110.29 769.715C1110.29 769.715 1029.45 771.525 996.817 773.335C964.181 775.145 945.101 776.357 908.447 778.162C871.793 779.967 801.499 781.481 801.499 781.481L670.841 785.361C670.841 785.361 582.324 791.1 577.056 791.438C571.787 791.776 483.27 800.216 483.27 800.216L404.238 806.631L323.098 811.358C323.098 811.358 198.753 815.409 182.947 816.759Z" fill="#596770" stroke="#596770"/>
<path d="M31 752L88.3404 516L141 752" stroke="#93A1A9" stroke-width="3"/>
<path d="M35.6094 733.018L117.596 648.466L71.0797 589.222" stroke="#93A1A9" stroke-width="2"/>
<path d="M136.984 733.018L56.1589 648.466L103.845 588.94" stroke="#93A1A9" stroke-width="2"/>
<path d="M103.846 589.222L77.8085 563.268L92.847 535.908" stroke="#93A1A9"/>
<path d="M71.3726 588.94L97.9949 563.833L83.5021 535.908" stroke="#93A1A9"/>
<ellipse cx="102" cy="519.5" rx="8" ry="13.5" fill="#93A1A9"/>
<ellipse cx="102" cy="519.5" rx="6" ry="11.5" fill="#85939B"/>
<ellipse cx="74" cy="519.5" rx="8" ry="13.5" fill="#93A1A9"/>
<ellipse cx="74" cy="519.5" rx="6" ry="11.5" fill="#85939B"/>
<path d="M95.1831 521.575L87.0061 521.575L81.1657 521.575" stroke="#93A1A9"/>
<path d="M95.1831 516.227L90.5107 516.212L79.9976 516.212" stroke="#93A1A9"/>
<path d="M171.722 813H0V748.65H171.722V813Z" fill="#2D3336" stroke="#2D3336"/>
<path d="M371 813H171.386V748.408L269.513 676.435L371 748.408V813Z" fill="#616B72" stroke="#616B72"/>
<path d="M308.831 757.23H233.892V812.643H308.831V757.23Z" fill="#3C454A" stroke="#3C454A"/>
<path d="M271.193 757.23V812.643" stroke="#2E3336" stroke-width="3"/>
<path d="M202.975 670V683.227H230.867V670H202.975Z" fill="#2C2C2C" stroke="#313131" stroke-width="3"/>
<rect x="72.5869" y="775.82" width="27.5562" height="23.595" fill="#1A1A1A"/>
<path d="M72.5869 761.52H100.143V773.675H72.5869V761.52Z" fill="#1A1A1A"/>
<rect x="18.8184" y="775.82" width="27.5562" height="23.595" fill="#1A1A1A"/>
<path d="M18.8184 761.52H46.3745V773.675H18.8184V761.52Z" fill="#1A1A1A"/>
<rect x="126.355" y="775.82" width="27.5562" height="23.595" fill="#1A1A1A"/>
<path d="M126.355 761.52H153.911V773.675H126.355V761.52Z" fill="#1A1A1A"/>
<path d="M96.1571 676.458L0 747.958H171.353L268.841 676.458H96.1571Z" fill="#373F44" stroke="#373F44"/>
<path d="M194.219 809.781C176.826 808.024 0 809.781 0 809.781V900H1136V867.836C1136 867.836 1064.06 856.845 1051.5 854.892C1038.94 852.939 952.899 842.926 950 842.341C947.101 841.755 818 831.358 818 831.358L677.35 825.599C677.35 825.599 458.009 819.74 425.156 816.811C392.303 813.882 211.612 811.539 194.219 809.781Z" fill="#424B50" stroke="#424B50"/>
<path d="M176 900H1440V876.339C1440 876.339 1362.01 869.353 1311.95 865.98C1223.4 860.013 1173.6 858.413 1084.86 856.092C729.296 846.789 176 900 176 900Z" fill="#373F44" stroke="#373F44"/>
<path d="M1440 344.146V614H1256.17L1253 539.819V535.277H1256.17V529.6H1253V522.409H1256.17V515.596H1253V508.784H1256.17V501.214H1253V494.78H1256.17V487.21H1253V480.398H1256.17V472.071H1253V464.123H1256.17V456.554H1253V449.363H1256.17V440.658H1253V433.467H1256.17V424.383H1253V417.949H1256.17V407.73H1253V400.918H1256.17V392.213H1253V384.643H1256.17V378.966H1253V371.775H1256.17V366.098H1253V359.285H1256.17V353.23H1253V346.039H1256.17V333.927H1265.97V331.278H1270.58L1271.5 301L1272.02 325.222H1277.2V313.868H1278.36V325.222H1279.51V321.438H1280.66V325.222H1281.81V335.82H1315.53V331.278H1321.86V335.82H1323.02V331.278H1329.93V335.82H1343.76V350.58H1348.08V359.285H1343.76V368.369H1348.08V376.695H1343.76V386.914H1348.08V394.862H1343.76V402.81H1348.08V411.894H1343.76V420.977H1348.08V429.303H1343.76V439.901H1348.08V445.2H1358.17H1362.49L1363 434.602L1363.64 445.2H1366.24V523.166H1369.98V501.592H1374.02V497.051H1376.32L1377 481.5L1377.76 495.158H1378.92V497.051H1381.8V500.836H1387.27V385.022L1410.61 344.146H1432.51V343.011V335.82H1433.95V344.146H1435.1H1436.54V329.386H1437.69V344.146H1440Z" fill="#94A1A9"/>
<path d="M1358.17 445.2H1362.49L1363 434.602L1363.64 445.2H1366.24V523.166H1369.98V501.592H1374.02V497.051H1376.32L1377 481.5L1377.76 495.158H1378.92V497.051H1381.8V500.836H1387.27V385.022L1410.61 344.146H1432.51V343.011V335.82H1433.95V344.146H1435.1H1436.54V329.386H1437.69V344.146H1440V614H1256.17L1253 539.819V535.277H1256.17V529.6H1253V522.409H1256.17V515.596H1253V508.784H1256.17V501.214H1253V494.78H1256.17V487.21H1253V480.398H1256.17V472.071H1253V464.123H1256.17V456.554H1253V449.363H1256.17V440.658H1253V433.467H1256.17V424.383H1253V417.949H1256.17V407.73H1253V400.918H1256.17V392.213H1253V384.643H1256.17V378.966H1253V371.775H1256.17V366.098H1253V359.285H1256.17V353.23H1253V346.039H1256.17V333.927H1265.97V331.278H1270.58L1271.5 301L1272.02 325.222H1277.2V313.868H1278.36V325.222H1279.51V321.438H1280.66V325.222H1281.81V335.82H1315.53V331.278H1321.86V335.82H1323.02V331.278H1329.93V335.82H1343.76V350.58H1348.08V359.285H1343.76V368.369H1348.08V376.695H1343.76V386.914H1348.08V394.862H1343.76V402.81H1348.08V411.894H1343.76V420.977H1348.08V429.303H1343.76V439.901H1348.08V445.2H1358.17ZM1358.17 445.2V419.842" stroke="#94A1A9" stroke-width="3"/>
<path d="M1201 585V655.789V820H1067V743.432H1083.04V723.5H1100.5V734.764H1118.9V706.834H1142.02V655.789H1163.73H1179.3V585H1201Z" fill="#596770" stroke="#596770" stroke-width="3"/>
<path d="M1189 629.5V804V820H1441V585.146L1353.19 560H1322.44V585.146H1292.67L1282.75 599.516H1241.08V560H1206.85V599.516L1189 629.5Z" fill="#596770" stroke="#596770" stroke-width="3"/>
<path d="M1410 508.2V510H1411.2L1412 507L1410 508.2Z" fill="#596770" stroke="#596770"/>
<path d="M1431 528V582V590H1347V528H1389.5V514H1399V510V505.5L1403.5 506.5L1407 508.25L1410.5 509L1411.5 512L1413.5 516V520.5H1407V524H1424V528H1431Z" fill="#596770"/>
<path d="M1411.5 512L1413.5 516V520.5H1407V524H1424V528H1431V582V590H1347V528H1389.5V514H1399V510V505.5L1403.5 506.5M1411.5 512L1409 510L1408.5 509.611M1411.5 512L1410.5 509L1407 508.25M1411.5 512L1407 508.25M1403.5 506.5L1406.75 508.25L1408.5 509.611M1403.5 506.5L1407 508.25M1407 508.25L1408.5 509.611" stroke="#596770"/>
<ellipse cx="1408.74" cy="511.664" rx="11.6144" ry="3.52231" transform="rotate(44.6132 1408.74 511.664)" fill="#596770"/>
<path d="M1145 720.335V874.5H1441V658.697L1438.9 653.258H1431.4V638.755H1426.6V653.258H1394.22L1380.42 691.329L1357.63 699.034V632.863H1330.64V626.971H1327.04V632.863H1323.44V622.439H1319.84V632.863H1308.44V650.992H1281.15V691.329H1271.56V617H1237.37L1227.17 632.863V699.034L1203.78 720.335V677.732H1161.19V720.335H1145Z" fill="#373F44" stroke="#373F44"/>
<path d="M1163.5 755H1125.5V819H1115V804.5H1101.5V841H1089V872.5H1441V755H1163.5Z" fill="#373F44" stroke="#373F44" stroke-width="5"/>
</g>
<defs>
<clipPath id="clip0_108_2">
<rect width="1440" height="900" fill="white"/>
</clipPath>
</defs>
</svg>
