<svg width="1440" height="900" viewBox="0 0 1440 900" fill="none" xmlns="http://www.w3.org/2000/svg">
<g clip-path="url(#clip0_60_4)">
<path d="M492.5 735.5C420.158 731.106 0 699 0 699V767.5H832L990 752.5C990 752.5 680.98 736.379 648.5 735.5C616.02 734.621 564.842 739.894 492.5 735.5Z" fill="#909FAA" stroke="#909FAA"/>
<path d="M765.355 755.803L332 763.561V806H1117V752.608C1117 752.608 940.448 751.239 901.052 752.608C861.656 753.977 765.355 755.803 765.355 755.803Z" fill="#6F7F8B" stroke="#6F7F8B"/>
<path d="M1198 578V648.789V813H1064V736.432H1080.04V716.5H1097.5V727.764H1115.9V699.834H1139.02V648.789H1160.73H1176.3V578H1198Z" fill="#596770" stroke="#596770" stroke-width="3"/>
<path d="M183.018 810.87C167.2 812.332 86 814.891 86 814.891V871H1304V757H1248.23L1111.05 759.939C1111.05 759.939 1030.15 761.899 997.49 763.859C964.829 765.818 945.735 767.13 909.055 769.084C872.374 771.038 802.027 772.677 802.027 772.677L671.273 776.878C671.273 776.878 582.691 783.091 577.418 783.457C572.145 783.822 483.564 792.96 483.564 792.96L404.473 799.905L323.273 805.022C323.273 805.022 198.836 809.408 183.018 810.87Z" fill="#596770" stroke="#596770"/>
<path d="M1440 346.146V616H1256.17L1253 541.819V537.277H1256.17V531.6H1253V524.409H1256.17V517.596H1253V510.784H1256.17V503.214H1253V496.78H1256.17V489.21H1253V482.398H1256.17V474.071H1253V466.123H1256.17V458.554H1253V451.363H1256.17V442.658H1253V435.467H1256.17V426.383H1253V419.949H1256.17V409.73H1253V402.918H1256.17V394.213H1253V386.643H1256.17V380.966H1253V373.775H1256.17V368.098H1253V361.285H1256.17V355.23H1253V348.039H1256.17V335.927H1265.97V333.278H1270.58L1271.5 303L1272.02 327.222H1277.2V315.868H1278.36V327.222H1279.51V323.438H1280.66V327.222H1281.81V337.82H1315.53V333.278H1321.86V337.82H1323.02V333.278H1329.93V337.82H1343.76V352.58H1348.08V361.285H1343.76V370.369H1348.08V378.695H1343.76V388.914H1348.08V396.862H1343.76V404.81H1348.08V413.894H1343.76V422.977H1348.08V431.303H1343.76V441.901H1348.08V447.2H1358.17H1362.49L1363 436.602L1363.64 447.2H1366.24V525.166H1369.98V503.592H1374.02V499.051H1376.32L1377 483.5L1377.76 497.158H1378.92V499.051H1381.8V502.836H1387.27V387.022L1410.61 346.146H1432.51V345.011V337.82H1433.95V346.146H1435.1H1436.54V331.386H1437.69V346.146H1440Z" fill="#94A1A9"/>
<path d="M1358.17 447.2H1362.49L1363 436.602L1363.64 447.2H1366.24V525.166H1369.98V503.592H1374.02V499.051H1376.32L1377 483.5L1377.76 497.158H1378.92V499.051H1381.8V502.836H1387.27V387.022L1410.61 346.146H1432.51V345.011V337.82H1433.95V346.146H1435.1H1436.54V331.386H1437.69V346.146H1440V616H1256.17L1253 541.819V537.277H1256.17V531.6H1253V524.409H1256.17V517.596H1253V510.784H1256.17V503.214H1253V496.78H1256.17V489.21H1253V482.398H1256.17V474.071H1253V466.123H1256.17V458.554H1253V451.363H1256.17V442.658H1253V435.467H1256.17V426.383H1253V419.949H1256.17V409.73H1253V402.918H1256.17V394.213H1253V386.643H1256.17V380.966H1253V373.775H1256.17V368.098H1253V361.285H1256.17V355.23H1253V348.039H1256.17V335.927H1265.97V333.278H1270.58L1271.5 303L1272.02 327.222H1277.2V315.868H1278.36V327.222H1279.51V323.438H1280.66V327.222H1281.81V337.82H1315.53V333.278H1321.86V337.82H1323.02V333.278H1329.93V337.82H1343.76V352.58H1348.08V361.285H1343.76V370.369H1348.08V378.695H1343.76V388.914H1348.08V396.862H1343.76V404.81H1348.08V413.894H1343.76V422.977H1348.08V431.303H1343.76V441.901H1348.08V447.2H1358.17ZM1358.17 447.2V421.842" stroke="#94A1A9" stroke-width="3"/>
<path d="M1186 624.5V799V837H1463V580.146L1366.48 555H1332.67V580.146H1299.96L1289.05 594.516H1243.24V555H1205.62V594.516L1186 624.5Z" fill="#596770" stroke="#596770" stroke-width="3"/>
<path d="M1414 501.2V503H1415.2L1416 500L1414 501.2Z" fill="#596770" stroke="#596770"/>
<path d="M1435 521V575V583H1351V521H1393.5V507H1403V503V498.5L1407.5 499.5L1411 501.25L1414.5 502L1415.5 505L1417.5 509V513.5H1411V517H1428V521H1435Z" fill="#596770"/>
<path d="M1415.5 505L1417.5 509V513.5H1411V517H1428V521H1435V575V583H1351V521H1393.5V507H1403V503V498.5L1407.5 499.5M1415.5 505L1413 503L1412.5 502.611M1415.5 505L1414.5 502L1411 501.25M1415.5 505L1411 501.25M1407.5 499.5L1410.75 501.25L1412.5 502.611M1407.5 499.5L1411 501.25M1411 501.25L1412.5 502.611" stroke="#596770"/>
<ellipse cx="1412.74" cy="504.664" rx="11.6144" ry="3.52231" transform="rotate(44.6132 1412.74 504.664)" fill="#596770"/>
<path d="M1144 719.335V897H1440V657.697L1437.9 652.258H1430.4V637.755H1425.6V652.258H1393.22L1379.42 690.329L1356.63 698.034V631.863H1329.64V625.971H1326.04V631.863H1322.44V621.439H1318.84V631.863H1307.44V649.992H1280.15V690.329H1270.56V616H1236.37L1226.17 631.863V698.034L1202.78 719.335V676.732H1160.19V719.335H1144Z" fill="#373F44" stroke="#373F44"/>
<path d="M31 733L88.3404 497L141 733" stroke="#93A1A9" stroke-width="3"/>
<path d="M35.6094 714.018L117.596 629.466L71.0797 570.222" stroke="#93A1A9" stroke-width="2"/>
<path d="M136.984 714.018L56.1589 629.466L103.845 569.94" stroke="#93A1A9" stroke-width="2"/>
<path d="M103.846 570.222L77.8085 544.268L92.847 516.908" stroke="#93A1A9"/>
<path d="M71.3726 569.94L97.9949 544.833L83.5021 516.908" stroke="#93A1A9"/>
<ellipse cx="102" cy="500.5" rx="8" ry="13.5" fill="#93A1A9"/>
<ellipse cx="103" cy="500.5" rx="6" ry="11.5" fill="#85939B"/>
<ellipse cx="74" cy="500.5" rx="8" ry="13.5" fill="#93A1A9"/>
<ellipse cx="74" cy="500.5" rx="6" ry="11.5" fill="#85939B"/>
<path d="M95.1831 502.575L87.0061 502.575L81.1657 502.575" stroke="#93A1A9"/>
<path d="M95.1831 497.227L90.5107 497.212L79.9976 497.212" stroke="#93A1A9"/>
<path d="M171.722 814H0V749.65H171.722V814Z" fill="#2D3336" stroke="#2D3336"/>
<path d="M371 814H171.386V749.408L269.513 677.435L371 749.408V814Z" fill="#616B72" stroke="#616B72"/>
<path d="M308.831 758.23H233.892V813.642H308.831V758.23Z" fill="#3C454A" stroke="#3C454A"/>
<path d="M271.193 758.23V813.642" stroke="#2E3336" stroke-width="3"/>
<path d="M202.975 671V684.227H230.867V671H202.975Z" fill="#2C2C2C" stroke="#313131" stroke-width="3"/>
<rect x="72.5869" y="776.82" width="27.5562" height="23.595" fill="#1A1A1A"/>
<path d="M72.5869 762.52H100.143V774.675H72.5869V762.52Z" fill="#1A1A1A"/>
<rect x="18.8184" y="776.82" width="27.5562" height="23.595" fill="#1A1A1A"/>
<path d="M18.8184 762.52H46.3745V774.675H18.8184V762.52Z" fill="#1A1A1A"/>
<rect x="126.355" y="776.82" width="27.5562" height="23.595" fill="#1A1A1A"/>
<path d="M126.355 762.52H153.911V774.675H126.355V762.52Z" fill="#1A1A1A"/>
<path d="M96.1571 677.458L0 748.958H171.353L268.841 677.458H96.1571Z" fill="#373F44" stroke="#373F44"/>
<path d="M194.219 806.781C176.826 805.024 0 806.781 0 806.781V897H1136V864.836C1136 864.836 1064.06 853.845 1051.5 851.892C1038.94 849.939 952.899 839.926 950 839.341C947.101 838.755 818 828.358 818 828.358L677.35 822.599C677.35 822.599 458.009 816.74 425.156 813.811C392.303 810.882 211.612 808.539 194.219 806.781Z" fill="#424B50" stroke="#424B50"/>
<path d="M1123.68 780H1177V901H168L1086.46 876.597V866.937H1100.55V830.84H1111.11V844.059H1123.68V780Z" fill="#373F44" stroke="#373F44"/>
</g>
<defs>
<clipPath id="clip0_60_4">
<rect width="1440" height="900" fill="white"/>
</clipPath>
</defs>
</svg>
