<svg width="1440" height="900" viewBox="0 0 1440 900" fill="none" xmlns="http://www.w3.org/2000/svg">
<g clip-path="url(#clip0_143_2)">
<path d="M1440 344.146V614H1256.17L1253 539.819V535.277H1256.17V529.6H1253V522.409H1256.17V515.596H1253V508.784H1256.17V501.214H1253V494.78H1256.17V487.21H1253V480.398H1256.17V472.071H1253V464.123H1256.17V456.554H1253V449.363H1256.17V440.658H1253V433.467H1256.17V424.383H1253V417.949H1256.17V407.73H1253V400.918H1256.17V392.213H1253V384.643H1256.17V378.966H1253V371.775H1256.17V366.098H1253V359.285H1256.17V353.23H1253V346.039H1256.17V333.927H1265.97V331.278H1270.58L1271.5 301L1272.02 325.222H1277.2V313.868H1278.36V325.222H1279.51V321.438H1280.66V325.222H1281.81V335.82H1315.53V331.278H1321.86V335.82H1323.02V331.278H1329.93V335.82H1343.76V350.58H1348.08V359.285H1343.76V368.369H1348.08V376.695H1343.76V386.914H1348.08V394.862H1343.76V402.81H1348.08V411.894H1343.76V420.977H1348.08V429.303H1343.76V439.901H1348.08V445.2H1358.17H1362.49L1363 434.602L1363.64 445.2H1366.24V523.166H1369.98V501.592H1374.02V497.051H1376.32L1377 481.5L1377.76 495.158H1378.92V497.051H1381.8V500.836H1387.27V385.022L1410.61 344.146H1432.51V343.011V335.82H1433.95V344.146H1435.1H1436.54V329.386H1437.69V344.146H1440Z" fill="#94A1A9"/>
<path d="M1358.17 445.2H1362.49L1363 434.602L1363.64 445.2H1366.24V523.166H1369.98V501.592H1374.02V497.051H1376.32L1377 481.5L1377.76 495.158H1378.92V497.051H1381.8V500.836H1387.27V385.022L1410.61 344.146H1432.51V343.011V335.82H1433.95V344.146H1435.1H1436.54V329.386H1437.69V344.146H1440V614H1256.17L1253 539.819V535.277H1256.17V529.6H1253V522.409H1256.17V515.596H1253V508.784H1256.17V501.214H1253V494.78H1256.17V487.21H1253V480.398H1256.17V472.071H1253V464.123H1256.17V456.554H1253V449.363H1256.17V440.658H1253V433.467H1256.17V424.383H1253V417.949H1256.17V407.73H1253V400.918H1256.17V392.213H1253V384.643H1256.17V378.966H1253V371.775H1256.17V366.098H1253V359.285H1256.17V353.23H1253V346.039H1256.17V333.927H1265.97V331.278H1270.58L1271.5 301L1272.02 325.222H1277.2V313.868H1278.36V325.222H1279.51V321.438H1280.66V325.222H1281.81V335.82H1315.53V331.278H1321.86V335.82H1323.02V331.278H1329.93V335.82H1343.76V350.58H1348.08V359.285H1343.76V368.369H1348.08V376.695H1343.76V386.914H1348.08V394.862H1343.76V402.81H1348.08V411.894H1343.76V420.977H1348.08V429.303H1343.76V439.901H1348.08V445.2H1358.17ZM1358.17 445.2V419.842" stroke="#94A1A9" stroke-width="3"/>
<path d="M1201 585V655.789V820H1067V743.432H1083.04V723.5H1100.5V734.764H1118.9V706.834H1142.02V655.789H1163.73H1179.3V585H1201Z" fill="#596770" stroke="#596770" stroke-width="3"/>
<path d="M1189 629.5V804V820H1441V585.146L1353.19 560H1322.44V585.146H1292.67L1282.75 599.516H1241.08V560H1206.85V599.516L1189 629.5Z" fill="#596770" stroke="#596770" stroke-width="3"/>
<path d="M1410 508.2V510H1411.2L1412 507L1410 508.2Z" fill="#596770" stroke="#596770"/>
<path d="M1431 528V582V590H1347V528H1389.5V514H1399V510V505.5L1403.5 506.5L1407 508.25L1410.5 509L1411.5 512L1413.5 516V520.5H1407V524H1424V528H1431Z" fill="#596770"/>
<path d="M1411.5 512L1413.5 516V520.5H1407V524H1424V528H1431V582V590H1347V528H1389.5V514H1399V510V505.5L1403.5 506.5M1411.5 512L1409 510L1408.5 509.611M1411.5 512L1410.5 509L1407 508.25M1411.5 512L1407 508.25M1403.5 506.5L1406.75 508.25L1408.5 509.611M1403.5 506.5L1407 508.25M1407 508.25L1408.5 509.611" stroke="#596770"/>
<ellipse cx="1408.74" cy="511.664" rx="11.6144" ry="3.52231" transform="rotate(44.6132 1408.74 511.664)" fill="#596770"/>
<path d="M1145 720.335V874.5H1441V658.697L1438.9 653.258H1431.4V638.755H1426.6V653.258H1394.22L1380.42 691.329L1357.63 699.034V632.863H1330.64V626.971H1327.04V632.863H1323.44V622.439H1319.84V632.863H1308.44V650.992H1281.15V691.329H1271.56V617H1237.37L1227.17 632.863V699.034L1203.78 720.335V677.732H1161.19V720.335H1145Z" fill="#373F44" stroke="#373F44"/>
<path d="M1163.5 755H1125.5V819H1115V804.5H1101.5V841H1089V872.5H1441V755H1163.5Z" fill="#373F44" stroke="#373F44" stroke-width="5"/>
</g>
<defs>
<clipPath id="clip0_143_2">
<rect width="1440" height="900" fill="white"/>
</clipPath>
</defs>
</svg>
