<svg width="360" height="800" viewBox="0 0 360 800" fill="none" xmlns="http://www.w3.org/2000/svg">
<g clip-path="url(#clip0_48_85)">
<rect width="360" height="800" fill="url(#paint0_linear_48_85)"/>
<path d="M15 742L39.5 627L62 742" stroke="#93A1A9"/>
<path d="M17 732.66L51 691.16L32 662.5" stroke="#93A1A9"/>
<path d="M60.3926 732.66L26.3926 691.16L46 662.5" stroke="#93A1A9"/>
<path d="M46 662.5L35 650L41.5 636.5" stroke="#93A1A9"/>
<path d="M32 662.5L43.5 650L37.5 636.5" stroke="#93A1A9"/>
<path d="M109.92 740.848C89.5182 739.333 0 736 0 736V756H229V743.424C229 743.424 187.78 742.515 178.62 742.212C169.46 741.909 130.322 742.364 109.92 740.848Z" fill="#909FAA" stroke="#909FAA"/>
<path d="M122.45 747.127L1 749.425V762H221V746.18C221 746.18 171.52 745.775 160.48 746.18C149.439 746.586 122.45 747.127 122.45 747.127Z" fill="#6F7F8B" stroke="#6F7F8B"/>
<path d="M50.9229 764.7C46.5333 765.422 24 766.686 24 766.686V786H362V736H344.442L305.228 736.722C305.228 736.722 273.915 737.986 272.745 738.347C271.574 738.708 247.577 741.596 244.944 741.596C242.31 741.596 215.68 744.664 215.68 744.664L186.416 747.913C186.416 747.913 161.834 750.982 160.371 751.162C158.907 751.343 134.326 755.856 134.326 755.856L112.377 759.285L89.8442 761.812C89.8442 761.812 55.3126 763.978 50.9229 764.7Z" fill="#596770" stroke="#596770"/>
<path d="M54.7708 762.326C49.8659 761.592 0 762.326 0 762.326V800H315V781.082C315 781.082 302.738 778.798 299.195 777.983C295.653 777.167 268.949 774.069 268.131 773.824C267.314 773.579 230.528 770.644 230.528 770.644L191.016 768.931C191.016 768.931 129.161 766.485 119.896 765.262C110.631 764.039 59.6756 763.06 54.7708 762.326Z" fill="#424B50" stroke="#424B50"/>
<path d="M267.099 761H282V800H0L256.696 792.134V789.021H260.632V777.387H263.584V781.647H267.099V761Z" fill="#373F44" stroke="#373F44"/>
<path d="M293 685V707.592V760H254V735.564H258.669V729.202H263.75V732.797H269.106V723.883H275.835V707.592H282.151H286.683V685H293Z" fill="#596770" stroke="#596770" stroke-width="3"/>
<path d="M360 625.647V711H309V687.537V686.1H309.864V684.305H309V682.03H309.864V679.875H309V677.721H309.864V675.326H309V673.291H309.864V670.897H309V668.742H309.864V666.109H309V663.595H309.864V661.201H309V658.926H309.864V656.173H309V653.898H309.864V651.025H309V648.99H309.864V645.758H309V643.603H309.864V640.85H309V638.456H309.864V636.66H309V634.386H309.864V632.59H309V630.435H309.864V628.52H309V626.245H309.864V622.415H312.536V621.577H313.794L314.045 612L314.186 619.661H315.601V616.07H315.915V619.661H316.23V618.464H316.544V619.661H316.858V623.013H326.052V621.577H327.781V623.013H328.096V621.577H329.982V623.013H333.753V627.682H334.932V630.435H333.753V633.308H334.932V635.942H333.753V639.174H334.932V641.688H333.753V644.202H334.932V647.075H333.753V649.948H334.932V652.582H333.753V655.933H334.932V657.609H337.683H338.861L339 654.258L339.176 657.609H339.883V682.27H340.904V675.446H342.005V674.01H342.633L342.818 669.091L343.026 673.411H343.341V674.01H344.126V675.207H345.619V638.576L351.985 625.647H357.957V625.288V623.013H358.35V625.647H358.664H359.057V620.978H359.371V625.647H360Z" fill="#94A1A9"/>
<path d="M337.683 657.609H338.861L339 654.258L339.176 657.609H339.883V682.27H340.904V675.446H342.005V674.01H342.633L342.818 669.091L343.026 673.411H343.341V674.01H344.126V675.207H345.619V638.576L351.985 625.647H357.957V625.288V623.013H358.35V625.647H358.664H359.057V620.978H359.371V625.647H360V711H309V687.537V686.1H309.864V684.305H309V682.03H309.864V679.875H309V677.721H309.864V675.326H309V673.291H309.864V670.897H309V668.742H309.864V666.109H309V663.595H309.864V661.201H309V658.926H309.864V656.173H309V653.898H309.864V651.025H309V648.99H309.864V645.758H309V643.603H309.864V640.85H309V638.456H309.864V636.66H309V634.386H309.864V632.59H309V630.435H309.864V628.52H309V626.245H309.864V622.415H312.536V621.577H313.794L314.045 612L314.186 619.661H315.601V616.07H315.915V619.661H316.23V618.464H316.544V619.661H316.858V623.013H326.052V621.577H327.781V623.013H328.096V621.577H329.982V623.013H333.753V627.682H334.932V630.435H333.753V633.308H334.932V635.942H333.753V639.174H334.932V641.688H333.753V644.202H334.932V647.075H333.753V649.948H334.932V652.582H333.753V655.933H334.932V657.609H337.683ZM337.683 657.609V649.589" stroke="#94A1A9"/>
<path d="M279 698.592V768.408V782H366V693.65L339.677 685H330.456V693.65H321.533L318.559 698.592H306.067V685H295.805V698.592H279Z" fill="#596770" stroke="#596770" stroke-width="3"/>
<path d="M352.015 674.73V675.3H352.35L352.574 674.35L352.015 674.73Z" fill="#596770" stroke="#596770"/>
<path d="M357.886 680.997V698.088V700.62H334.4V680.997H346.283V676.566H348.939V675.3V673.875L350.197 674.192L351.176 674.746L352.154 674.983L352.434 675.933L352.993 677.199V678.623H351.176V679.731H355.929V680.997H357.886Z" fill="#596770"/>
<path d="M352.434 675.933L352.993 677.199V678.623H351.176V679.731H355.929V680.997H357.886V698.088V700.62H334.4V680.997H346.283V676.566H348.939V675.3V673.875L350.197 674.192M352.434 675.933L351.735 675.3L351.595 675.177M352.434 675.933L352.154 674.983L351.176 674.746M352.434 675.933L351.176 674.746M350.197 674.192L351.106 674.746L351.595 675.177M350.197 674.192L351.176 674.746M351.176 674.746L351.595 675.177" stroke="#596770"/>
<path d="M276 732.348V800H418V708.877L416.993 706.806H413.396V701.284H411.094V706.806H395.556L388.938 721.303L378.004 724.237V699.04H365.056V696.797H363.329V699.04H361.603V695.071H359.876V699.04H354.409V705.944H341.317V721.303H336.713V693H320.312L315.42 699.04V724.237L304.199 732.348V716.126H283.769V732.348H276Z" fill="#373F44" stroke="#373F44"/>
<ellipse cx="3.46539" cy="1.0527" rx="3.46539" ry="1.0527" transform="matrix(0.667078 0.744988 -0.657037 0.753858 349.763 672.451)" fill="#596770"/>
<path d="M64.6084 718V722.276H73.4856V718H64.6084Z" fill="#2C2C2C" stroke="#313131" stroke-width="3"/>
<path d="M54.6538 764.231H0V743.427H54.6538V764.231Z" fill="#2D3336" stroke="#2D3336"/>
<path d="M118.078 764.231H54.5474L54.5833 742.849L86.8876 719.734L118.078 743.349V764.231Z" fill="#616B72" stroke="#616B72"/>
<path d="M98.4851 746.894H74.6343V764.809H98.4851V746.894Z" fill="#3C454A" stroke="#3C454A"/>
<path d="M86.8877 746.316V765.387" stroke="#2E3336" stroke-width="2"/>
<rect x="23.1021" y="752.211" width="8.77027" height="7.6281" fill="#1A1A1A"/>
<path d="M23.1021 747.588H31.8723V751.518H23.1021V747.588Z" fill="#1A1A1A"/>
<rect x="5.98975" y="752.211" width="8.77027" height="7.6281" fill="#1A1A1A"/>
<path d="M5.98975 747.588H14.76V751.518H5.98975V747.588Z" fill="#1A1A1A"/>
<rect x="40.2148" y="752.211" width="8.77027" height="7.6281" fill="#1A1A1A"/>
<path d="M40.2148 747.588H48.9851V751.518H40.2148V747.588Z" fill="#1A1A1A"/>
<path d="M30.0764 719.734L0 742.849H54.0262L85.2165 719.734H30.0764Z" fill="#373F44" stroke="#373F44"/>
<ellipse cx="45.5" cy="628.5" rx="3.5" ry="6.5" fill="#93A1A9"/>
<ellipse cx="45.5" cy="628.5" rx="2.5" ry="5.5" fill="#85939B"/>
<ellipse cx="33.5" cy="628.5" rx="3.5" ry="6.5" fill="#93A1A9"/>
<ellipse cx="33.5" cy="628.5" rx="2.5" ry="5.5" fill="#85939B"/>
<path d="M42.5 629.507L38.9999 629.507L36.5 629.507" stroke="#93A1A9"/>
<path d="M42.5 626.898L40.5 626.891L36 626.891" stroke="#93A1A9"/>
</g>
<defs>
<linearGradient id="paint0_linear_48_85" x1="180" y1="0" x2="180" y2="800" gradientUnits="userSpaceOnUse">
<stop offset="0.0101" stop-color="#E0E9EC"/>
<stop offset="1" stop-color="#707F88"/>
</linearGradient>
<clipPath id="clip0_48_85">
<rect width="360" height="800" fill="white"/>
</clipPath>
</defs>
</svg>
