<svg width="90" height="25" viewBox="0 0 90 25" fill="none" xmlns="http://www.w3.org/2000/svg">
<path d="M5.73438 21.8516C5.57812 23.4141 4.71875 24.2604 3.15625 24.3906C2.42708 24.3906 1.78906 24.1562 1.24219 23.6875C0.721354 23.1927 0.460938 22.5807 0.460938 21.8516V3.41406C0.486979 2.6849 0.760417 2.08594 1.28125 1.61719C1.80208 1.1224 2.42708 0.875 3.15625 0.875H19.5625C21.8542 0.953125 23.5859 1.46094 24.7578 2.39844C25.9297 3.3099 26.776 4.35156 27.2969 5.52344C27.8177 6.69531 28.0781 7.88021 28.0781 9.07812C28.0781 10.3281 27.8177 11.5391 27.2969 12.7109C26.8021 13.8828 25.9557 14.9375 24.7578 15.875C23.5859 16.7865 22.0885 17.2292 20.2656 17.2031H10.4219C9.69271 17.2031 9.08073 16.9427 8.58594 16.4219C8.0651 15.9271 7.80469 15.3151 7.80469 14.5859C7.80469 13.8568 8.05208 13.2448 8.54688 12.75C9.06771 12.2292 9.69271 11.9688 10.4219 11.9688H20.5C20.9948 11.9688 21.3984 11.8125 21.7109 11.5C22.0495 11.1615 22.2969 10.7839 22.4531 10.3672C22.6094 9.92448 22.6875 9.48177 22.6875 9.03906C22.6875 8.6224 22.6094 8.20573 22.4531 7.78906C22.2969 7.34635 22.0495 6.96875 21.7109 6.65625C21.3984 6.31771 20.9948 6.13542 20.5 6.10938H6.75C6.07292 6.13542 5.73438 6.47396 5.73438 7.125V21.8516ZM57.4922 3.49219C57.4922 4.22135 57.2318 4.83333 56.7109 5.32812C56.2161 5.84896 55.6042 6.10938 54.875 6.10938H39.25C38.7552 6.13542 38.3385 6.2526 38 6.46094C37.6875 6.64323 37.4531 6.86458 37.2969 7.125C37.1406 7.35938 37.0625 7.60677 37.0625 7.86719C37.0625 8.1276 37.1406 8.38802 37.2969 8.64844C37.4531 8.88281 37.6875 9.10417 38 9.3125C38.3385 9.49479 38.7552 9.59896 39.25 9.625H50.3438C52.1667 9.67708 53.6641 10.1068 54.8359 10.9141C56.0339 11.6953 56.8802 12.6068 57.375 13.6484C57.8958 14.6641 58.1562 15.7057 58.1562 16.7734C58.1562 17.8151 57.8958 18.8568 57.375 19.8984C56.8542 20.9141 56.0078 21.8255 54.8359 22.6328C53.6641 23.4141 52.1667 23.8047 50.3438 23.8047H50.1094C49.9531 23.8307 49.7969 23.8438 49.6406 23.8438H34.875C34.1458 23.8438 33.5208 23.5964 33 23.1016C32.5052 22.5807 32.2578 21.9557 32.2578 21.2266C32.2578 20.4974 32.5182 19.8854 33.0391 19.3906C33.5339 18.8698 34.1458 18.6094 34.875 18.6094H50.5781C51.0729 18.6354 51.4766 18.5443 51.7891 18.3359C52.1276 18.1276 52.375 17.8932 52.5312 17.6328C52.6875 17.3464 52.7656 17.0599 52.7656 16.7734C52.7656 16.5911 52.6875 16.3438 52.5312 16.0312C52.375 15.6927 52.1276 15.4193 51.7891 15.2109C51.4766 15.0026 51.0729 14.8854 50.5781 14.8594H39.4844C37.6615 14.8073 36.151 14.3906 34.9531 13.6094C33.7812 12.8281 32.9349 11.9427 32.4141 10.9531C31.9193 9.9375 31.6719 8.90885 31.6719 7.86719C31.6719 6.85156 31.9323 5.84896 32.4531 4.85938C32.974 3.84375 33.8203 2.94531 34.9922 2.16406C36.1641 1.38281 37.6615 0.966146 39.4844 0.914062H39.7188C39.875 0.888021 40.0312 0.875 40.1875 0.875H54.875C55.6042 0.875 56.2161 1.13542 56.7109 1.65625C57.2318 2.15104 57.4922 2.76302 57.4922 3.49219ZM61.7891 3.49219C61.7891 2.76302 62.0365 2.15104 62.5312 1.65625C63.0521 1.13542 63.6771 0.875 64.4062 0.875H87.1406C87.8698 0.875 88.4948 1.1224 89.0156 1.61719C89.5104 2.13802 89.7578 2.76302 89.7578 3.49219C89.7578 4.22135 89.4974 4.84635 88.9766 5.36719C88.4818 5.86198 87.8698 6.10938 87.1406 6.10938H78.4297V21.9297C78.2734 23.4922 77.4141 24.3385 75.8516 24.4688C75.1224 24.4688 74.4844 24.2344 73.9375 23.7656C73.4167 23.2708 73.1562 22.6589 73.1562 21.9297V6.10938H64.4062C63.6771 6.10938 63.0651 5.84896 62.5703 5.32812C62.0495 4.83333 61.7891 4.22135 61.7891 3.49219Z" fill="url(#paint0_linear_17_463)"/>
<defs>
<linearGradient id="paint0_linear_17_463" x1="53.5" y1="-10" x2="53.5" y2="30" gradientUnits="userSpaceOnUse">
<stop stop-color="#373F44"/>
<stop offset="0.78" stop-color="#373F44"/>
</linearGradient>
</defs>
</svg>
