<svg width="1280" height="832" viewBox="0 0 1280 832" fill="none" xmlns="http://www.w3.org/2000/svg">
<g clip-path="url(#clip0_31_824)">
<rect width="1280" height="832" fill="url(#paint0_linear_31_824)"/>
<path d="M16.865 635.422V661.5H183.455V635.422H16.865Z" fill="#B9B9B9" stroke="#94A1A9"/>
<path d="M52.1052 634.889L95.1257 298H106.11L149.13 634.889" stroke="#94A1A9" stroke-width="4"/>
<path d="M52.5627 634.889L136.904 545.775C137.319 545.336 137.253 544.631 136.763 544.277L70.9115 496.675C70.4105 496.312 70.3549 495.587 70.7949 495.152L123.868 442.77C124.191 442.451 124.259 441.955 124.033 441.561L86.3056 375.752C86.104 375.4 86.1347 374.961 86.3834 374.641L111.264 342.608C111.474 342.338 111.531 341.978 111.415 341.655L96.0409 299.064" stroke="#94A1A9" stroke-width="2"/>
<path d="M17.3226 475.226H10V466.179L45.2402 425.731H157.368L192.151 466.179V475.226H184.37V486.935H175.217V475.226H26.9336V486.935H17.3226V475.226Z" stroke="#94A1A9" stroke-width="4"/>
<path d="M44.7825 426.263V471.283C44.7825 472.321 46.1672 472.672 46.6616 471.76L70.5164 427.758C70.8799 427.088 71.8303 427.055 72.2394 427.698L101.528 473.779C101.939 474.425 102.895 474.389 103.255 473.713L127.689 427.85C128.058 427.158 129.044 427.141 129.437 427.819L155.045 472.008C155.558 472.892 156.91 472.528 156.91 471.506V426.263" stroke="#94A1A9" stroke-width="2"/>
<path d="M40.4336 386.717H35.1716V380.423L60.495 352.286H141.069L166.064 380.423V386.717H160.473V394.862H153.895V386.717H47.34V394.862H40.4336V386.717Z" stroke="#94A1A9" stroke-width="4"/>
<path d="M60.8008 352.286V382.475C60.8008 383.508 62.1756 383.863 62.6757 382.959L78.846 353.743C79.2115 353.083 80.1489 353.05 80.5598 353.683L100.841 384.938C101.253 385.574 102.196 385.537 102.558 384.871L119.44 353.833C119.811 353.151 120.784 353.134 121.179 353.802L138.574 383.202C139.092 384.078 140.434 383.71 140.434 382.693V352.286" stroke="#94A1A9" stroke-width="2"/>
<path d="M389.76 648.061C317.418 643.667 0 634 0 634V692H812V655.53C812 655.53 665.84 652.894 633.36 652.015C600.88 651.136 462.102 652.455 389.76 648.061Z" fill="#909FAA" stroke="#909FAA"/>
<path d="M433.355 665.803L0 673.561V716H785V662.608C785 662.608 608.448 661.239 569.052 662.608C529.656 663.977 433.355 665.803 433.355 665.803Z" fill="#6F7F8B" stroke="#6F7F8B"/>
<path d="M177.54 722.971C161.8 725.209 81 729.126 81 729.126V789H1293V634H1230.04L1089.43 636.238C1089.43 636.238 977.145 640.155 972.948 641.274C968.751 642.394 882.704 651.347 873.26 651.347C863.816 651.347 768.325 660.859 768.325 660.859L663.39 670.931C663.39 670.931 575.244 680.444 569.997 681.004C564.751 681.563 476.605 695.552 476.605 695.552L397.904 706.184L317.104 714.018C317.104 714.018 193.281 720.733 177.54 722.971Z" fill="#596770" stroke="#596770"/>
<path d="M194.219 716.996C176.826 714.755 0 716.996 0 716.996V832H1117V774.249C1117 774.249 1073.52 767.279 1060.96 764.79C1048.4 762.3 953.702 752.841 950.803 752.094C947.904 751.348 817.458 742.386 817.458 742.386L677.35 737.159C677.35 737.159 458.009 729.691 425.156 725.957C392.303 722.223 211.612 719.236 194.219 716.996Z" fill="#424B50" stroke="#424B50"/>
<path d="M950.683 711H1004V832H-5L913.462 807.597V797.937H927.545V761.84H938.108V775.059H950.683V711Z" fill="#373F44" stroke="#373F44"/>
<path d="M201.808 725H0V655.25H201.808V725Z" fill="#2D3336" stroke="#2D3336"/>
<path d="M436 725H201.413V654.988L316.732 576.975L436 654.988V725Z" fill="#616B72" stroke="#616B72"/>
<path d="M362.938 664.55H274.87V724.613H362.938V664.55Z" fill="#3C454A" stroke="#3C454A"/>
<path d="M318.707 664.55V724.613" stroke="#2E3336" stroke-width="3"/>
<path d="M238.536 570V584.337H271.315V570H238.536Z" fill="#2C2C2C" stroke="#313131" stroke-width="3"/>
<rect x="85.3044" y="684.7" width="32.3841" height="25.575" fill="#1A1A1A"/>
<path d="M85.3044 669.2H117.688V682.375H85.3044V669.2Z" fill="#1A1A1A"/>
<rect x="22.116" y="684.7" width="32.3841" height="25.575" fill="#1A1A1A"/>
<path d="M22.116 669.2H54.5V682.375H22.116V669.2Z" fill="#1A1A1A"/>
<rect x="148.493" y="684.7" width="32.3841" height="25.575" fill="#1A1A1A"/>
<path d="M148.493 669.2H180.877V682.375H148.493V669.2Z" fill="#1A1A1A"/>
<path d="M1042 471V541.789V706H908V629.432H924.042V609.5H941.5V620.764H959.901V592.834H983.021V541.789H1004.73H1020.3V471H1042Z" fill="#596770" stroke="#596770" stroke-width="3"/>
<path d="M1280 281.146V551H1096.17L1093 476.819V472.277H1096.17V466.6H1093V459.409H1096.17V452.596H1093V445.784H1096.17V438.214H1093V431.78H1096.17V424.21H1093V417.398H1096.17V409.071H1093V401.123H1096.17V393.554H1093V386.363H1096.17V377.658H1093V370.467H1096.17V361.383H1093V354.949H1096.17V344.73H1093V337.918H1096.17V329.213H1093V321.643H1096.17V315.966H1093V308.775H1096.17V303.098H1093V296.285H1096.17V290.23H1093V283.039H1096.17V270.927H1105.97V268.278H1110.58L1111.5 238L1112.02 262.222H1117.2V250.868H1118.36V262.222H1119.51V258.438H1120.66V262.222H1121.81V272.82H1155.53V268.278H1161.86V272.82H1163.02V268.278H1169.93V272.82H1183.76V287.58H1188.08V296.285H1183.76V305.369H1188.08V313.695H1183.76V323.914H1188.08V331.862H1183.76V339.81H1188.08V348.894H1183.76V357.977H1188.08V366.303H1183.76V376.901H1188.08V382.2H1198.17H1202.49L1203 371.602L1203.64 382.2H1206.24V460.166H1209.98V438.592H1214.02V434.051H1216.32L1217 418.5L1217.76 432.158H1218.92V434.051H1221.8V437.836H1227.27V322.022L1250.61 281.146H1272.51V280.011V272.82H1273.95V281.146H1275.1H1276.54V266.386H1277.69V281.146H1280Z" fill="#94A1A9"/>
<path d="M1198.17 382.2H1202.49L1203 371.602L1203.64 382.2H1206.24V460.166H1209.98V438.592H1214.02V434.051H1216.32L1217 418.5L1217.76 432.158H1218.92V434.051H1221.8V437.836H1227.27V322.022L1250.61 281.146H1272.51V280.011V272.82H1273.95V281.146H1275.1H1276.54V266.386H1277.69V281.146H1280V551H1096.17L1093 476.819V472.277H1096.17V466.6H1093V459.409H1096.17V452.596H1093V445.784H1096.17V438.214H1093V431.78H1096.17V424.21H1093V417.398H1096.17V409.071H1093V401.123H1096.17V393.554H1093V386.363H1096.17V377.658H1093V370.467H1096.17V361.383H1093V354.949H1096.17V344.73H1093V337.918H1096.17V329.213H1093V321.643H1096.17V315.966H1093V308.775H1096.17V303.098H1093V296.285H1096.17V290.23H1093V283.039H1096.17V270.927H1105.97V268.278H1110.58L1111.5 238L1112.02 262.222H1117.2V250.868H1118.36V262.222H1119.51V258.438H1120.66V262.222H1121.81V272.82H1155.53V268.278H1161.86V272.82H1163.02V268.278H1169.93V272.82H1183.76V287.58H1188.08V296.285H1183.76V305.369H1188.08V313.695H1183.76V323.914H1188.08V331.862H1183.76V339.81H1188.08V348.894H1183.76V357.977H1188.08V366.303H1183.76V376.901H1188.08V382.2H1198.17ZM1198.17 382.2V356.842" stroke="#94A1A9" stroke-width="3"/>
<path d="M994 513.178V729.822V772H1303V497.841L1209.51 471H1176.76V497.841H1145.07L1134.5 513.178H1090.13V471H1053.69V513.178H994Z" fill="#596770" stroke="#596770" stroke-width="3"/>
<path d="M1254 436.2V438H1255.2L1256 435L1254 436.2Z" fill="#596770" stroke="#596770"/>
<path d="M1275 456V510V518H1191V456H1233.5V442H1243V438V433.5L1247.5 434.5L1251 436.25L1254.5 437L1255.5 440L1257.5 444V448.5H1251V452H1268V456H1275Z" fill="#596770"/>
<path d="M1255.5 440L1257.5 444V448.5H1251V452H1268V456H1275V510V518H1191V456H1233.5V442H1243V438V433.5L1247.5 434.5M1255.5 440L1253 438L1252.5 437.611M1255.5 440L1254.5 437L1251 436.25M1255.5 440L1251 436.25M1247.5 434.5L1250.75 436.25L1252.5 437.611M1247.5 434.5L1251 436.25M1251 436.25L1252.5 437.611" stroke="#596770"/>
<path d="M984 616.4V832H1490V541.6L1486.41 535H1473.59V517.4H1465.39V535H1410.02L1386.44 581.2L1347.48 590.55V510.25H1301.34V503.1H1295.19V510.25H1289.04V497.6H1282.88V510.25H1263.4V532.25H1216.75V581.2H1200.34V491H1141.9L1124.47 510.25V590.55L1084.48 616.4V564.7H1011.68V616.4H984Z" fill="#373F44" stroke="#373F44"/>
<ellipse cx="1251.74" cy="439.664" rx="11.6144" ry="3.52231" transform="rotate(44.6132 1251.74 439.664)" fill="#596770"/>
<path d="M113.004 577L0 654.5H201.374L315.942 577H113.004Z" fill="#373F44" stroke="#373F44"/>
</g>
<defs>
<linearGradient id="paint0_linear_31_824" x1="640" y1="0" x2="640" y2="832" gradientUnits="userSpaceOnUse">
<stop stop-color="#E1EAEE"/>
<stop offset="1" stop-color="#959EA4"/>
</linearGradient>
<clipPath id="clip0_31_824">
<rect width="1280" height="832" fill="white"/>
</clipPath>
</defs>
</svg>
