<svg width="1278" height="833" viewBox="0 0 1278 833" fill="none" xmlns="http://www.w3.org/2000/svg">
<rect width="1275" height="832" transform="matrix(1 0 0 -1 2 833)" fill="url(#paint0_linear_17_641)"/>
<path d="M18.865 197.578L18.865 171.5L185.455 171.5V197.578L18.865 197.578Z" fill="#B9B9B9" stroke="#94A1A9"/>
<path d="M54.1052 198.111L97.1257 535H108.11L151.13 198.111" stroke="#94A1A9" stroke-width="4"/>
<path d="M54.5628 198.111L138.904 287.225C139.319 287.664 139.253 288.369 138.763 288.723L72.9116 336.325C72.4106 336.688 72.355 337.413 72.795 337.848L125.868 390.23C126.191 390.549 126.259 391.045 126.033 391.439L88.3057 457.248C88.104 457.6 88.1348 458.038 88.3835 458.359L113.264 490.392C113.474 490.662 113.531 491.022 113.415 491.344L98.041 533.936" stroke="#94A1A9" stroke-width="2"/>
<path d="M19.3226 357.774H12L12 366.821L47.2402 407.269H159.368L194.151 366.821V357.774H186.37V346.065H177.217V357.774H28.9336V346.065H19.3226V357.774Z" stroke="#94A1A9" stroke-width="4"/>
<path d="M46.7825 406.737L46.7825 361.717C46.7825 360.679 48.1672 360.328 48.6617 361.24L72.5164 405.242C72.88 405.912 73.8303 405.945 74.2395 405.302L103.528 359.221C103.939 358.575 104.895 358.611 105.255 359.287L129.689 405.15C130.058 405.842 131.044 405.859 131.437 405.181L157.045 360.992C157.558 360.108 158.91 360.472 158.91 361.494V406.737" stroke="#94A1A9" stroke-width="2"/>
<path d="M42.4336 446.283H37.1716V452.577L62.4949 480.715H143.069L168.064 452.577V446.283H162.473V438.138H155.895V446.283H49.3399L49.3399 438.138H42.4336V446.283Z" stroke="#94A1A9" stroke-width="4"/>
<path d="M62.8008 480.715L62.8008 450.525C62.8008 449.492 64.1756 449.137 64.6757 450.041L80.846 479.257C81.2115 479.917 82.149 479.95 82.5598 479.317L102.841 448.062C103.253 447.427 104.196 447.463 104.558 448.129L121.44 479.167C121.811 479.849 122.784 479.866 123.18 479.198L140.574 449.798C141.092 448.922 142.435 449.29 142.435 450.307V480.715" stroke="#94A1A9" stroke-width="2"/>
<path d="M391.76 184.939C319.418 189.333 2 199 2 199L2 141L814 141V177.47C814 177.47 667.84 180.106 635.36 180.985C602.88 181.864 464.102 180.545 391.76 184.939Z" fill="#909FAA" stroke="#909FAA"/>
<path d="M435.355 167.197L2 159.439L2 117L787 117V170.392C787 170.392 610.448 171.761 571.052 170.392C531.656 169.023 435.355 167.197 435.355 167.197Z" fill="#6F7F8B" stroke="#6F7F8B"/>
<path d="M179.54 110.029C163.8 107.791 83 103.874 83 103.874V44L1277 44V199H1232.04L1091.43 196.762C1091.43 196.762 979.145 192.845 974.948 191.726C970.751 190.606 884.704 181.653 875.26 181.653C865.816 181.653 770.325 172.141 770.325 172.141L665.39 162.069C665.39 162.069 577.244 152.556 571.997 151.996C566.751 151.437 478.605 137.448 478.605 137.448L399.904 126.816L319.104 118.982C319.104 118.982 195.281 112.267 179.54 110.029Z" fill="#596770" stroke="#596770"/>
<path d="M196.219 116.004C178.826 118.245 2 116.004 2 116.004L2 1L1119 1V58.7511C1119 58.7511 1075.52 65.721 1062.96 68.2103C1050.4 70.6996 955.702 80.1589 952.803 80.9056C949.904 81.6523 819.458 90.6137 819.458 90.6137L679.35 95.8412C679.35 95.8412 460.009 103.309 427.156 107.043C394.303 110.777 213.612 113.764 196.219 116.004Z" fill="#424B50" stroke="#424B50"/>
<path d="M952.683 122L1006 122V1L1 1L915.462 25.4034V35.063H929.545V71.1597H940.108V57.9412H952.683V122Z" fill="#373F44" stroke="#373F44"/>
<path d="M203.808 108L2 108L2 177.75L203.808 177.75V108Z" fill="#2D3336" stroke="#2D3336"/>
<path d="M438 108L203.413 108L203.413 178.012L318.732 256.025L438 178.012V108Z" fill="#616B72" stroke="#616B72"/>
<path d="M364.938 168.45H276.87V108.387L364.938 108.387V168.45Z" fill="#3C454A" stroke="#3C454A"/>
<path d="M320.707 168.45V108.387" stroke="#2E3336" stroke-width="3"/>
<path d="M240.536 263V248.663H273.315V263H240.536Z" fill="#2C2C2C" stroke="#313131" stroke-width="3"/>
<rect width="32.3841" height="25.575" transform="matrix(1 0 0 -1 87.3044 148.3)" fill="#1A1A1A"/>
<path d="M87.3044 163.8H119.688V150.625H87.3044V163.8Z" fill="#1A1A1A"/>
<rect width="32.3841" height="25.575" transform="matrix(1 0 0 -1 24.1159 148.3)" fill="#1A1A1A"/>
<path d="M24.1159 163.8H56.5V150.625H24.1159V163.8Z" fill="#1A1A1A"/>
<rect width="32.3841" height="25.575" transform="matrix(1 0 0 -1 150.493 148.3)" fill="#1A1A1A"/>
<path d="M150.493 163.8H182.877V150.625H150.493V163.8Z" fill="#1A1A1A"/>
<path d="M1044 362V291.211V127L910 127V203.568H926.042V223.5H943.5V212.236H961.901V240.166H985.021V291.211H1006.73H1022.3V362H1044Z" fill="#596770" stroke="#596770" stroke-width="3"/>
<path d="M1275.95 551.854V282H1098.17L1095 356.181V360.723H1098.17V366.4H1095V373.591H1098.17V380.404H1095V387.216H1098.17V394.786H1095V401.22H1098.17V408.79H1095V415.602H1098.17V423.929H1095V431.877H1098.17V439.446H1095V446.637H1098.17V455.342H1095V462.533H1098.17V471.617H1095V478.051H1098.17V488.27H1095V495.082H1098.17V503.787H1095V511.357H1098.17V517.034H1095V524.225H1098.17V529.902H1095V536.715H1098.17V542.77H1095V549.961H1098.17V562.073H1107.97V564.722H1112.58L1113.5 595L1114.02 570.778H1119.2V582.132H1120.36V570.778H1121.51V574.562H1122.66V570.778H1123.81V560.18H1157.53V564.722H1163.86V560.18H1165.02V564.722H1171.93V560.18H1185.76V545.42H1190.08V536.715H1185.76V527.631H1190.08V519.305H1185.76V509.086H1190.08V501.138H1185.76V493.19H1190.08V484.106H1185.76V475.023H1190.08V466.697H1185.76V456.099H1190.08V450.8H1200.17H1204.49L1205 461.398L1205.64 450.8H1208.24V372.834H1211.98V394.408H1216.02V398.949H1218.32L1219 414.5L1219.76 400.842H1220.92V398.949H1223.8V395.164H1229.27V510.978L1252.61 551.854H1270.5V556.5V560.18H1274.51V552.989V551.854H1275.95Z" fill="#94A1A9"/>
<path d="M1274.51 551.854H1275.95V282H1098.17L1095 356.181V360.723H1098.17V366.4H1095V373.591H1098.17V380.404H1095V387.216H1098.17V394.786H1095V401.22H1098.17V408.79H1095V415.602H1098.17V423.929H1095V431.877H1098.17V439.446H1095V446.637H1098.17V455.342H1095V462.533H1098.17V471.617H1095V478.051H1098.17V488.27H1095V495.082H1098.17V503.787H1095V511.357H1098.17V517.034H1095V524.225H1098.17V529.902H1095V536.715H1098.17V542.77H1095V549.961H1098.17V562.073H1107.97V564.722H1112.58L1113.5 595L1114.02 570.778H1119.2V582.132H1120.36V570.778H1121.51V574.562H1122.66V570.778H1123.81V560.18H1157.53V564.722H1163.86V560.18H1165.02V564.722H1171.93V560.18H1185.76V545.42H1190.08V536.715H1185.76V527.631H1190.08V519.305H1185.76V509.086H1190.08V501.138H1185.76V493.19H1190.08V484.106H1185.76V475.023H1190.08V466.697H1185.76V456.099H1190.08V450.8H1200.17M1274.51 551.854H1270.5V556.5V560.18H1274.51V552.989V551.854ZM1274.51 551.854H1252.61L1229.27 510.978V395.164H1223.8V398.949H1220.92V400.842H1219.76L1219 414.5L1218.32 398.949H1216.02V394.408H1211.98V372.834H1208.24V450.8H1205.64L1205 461.398L1204.49 450.8H1200.17M1274.51 551.854V561V566.5M1200.17 450.8V476.158" stroke="#94A1A9" stroke-width="3"/>
<path d="M996 319.822V103.178V61L1276 61V319.822V344L1211.51 362H1178.76V335.159H1147.07L1136.5 319.822H1092.13V362H1055.69V319.822H996Z" fill="#596770" stroke="#596770" stroke-width="3"/>
<path d="M1256 396.8V395H1257.2L1258 398L1256 396.8Z" fill="#596770" stroke="#596770"/>
<path d="M1277 377V323V315H1193V377H1235.5V391H1245V395V399.5L1249.5 398.5L1253 396.75L1256.5 396L1257.5 393L1259.5 389V384.5H1253V381H1270V377H1277Z" fill="#596770"/>
<path d="M1257.5 393L1259.5 389V384.5H1253V381H1270V377H1277V323V315H1193V377H1235.5V391H1245V395V399.5L1249.5 398.5M1257.5 393L1255 395L1254.5 395.389M1257.5 393L1256.5 396L1253 396.75M1257.5 393L1253 396.75M1249.5 398.5L1252.75 396.75L1254.5 395.389M1249.5 398.5L1253 396.75M1253 396.75L1254.5 395.389" stroke="#596770"/>
<path d="M986 216.6V1L1277 1V10.5V22V36V55V80.5V106.5L1277 143L1277 179.5L1277 218L1277 269L1277 303.5L1277 318V322.75H1265.4V300.75L1218.75 300.75V251.8H1202.34V342H1143.9L1126.47 322.75V242.45L1086.48 216.6V268.3H1013.68V216.6H986Z" fill="#373F44"/>
<path d="M1277 322.75H1265.4V300.75L1218.75 300.75V251.8H1202.34V342H1143.9L1126.47 322.75V242.45L1086.48 216.6V268.3H1013.68V216.6H986V1L1277 1V10.5V22V36V55V80.5V106.5L1277 143L1277 179.5L1277 218L1277 269L1277 303.5L1277 318V322.75ZM1277 322.75L1277 335.5" stroke="#373F44"/>
<ellipse cx="11.6144" cy="3.52231" rx="11.6144" ry="3.52231" transform="matrix(0.711864 -0.702317 -0.702317 -0.711864 1247.95 404)" fill="#596770"/>
<path d="M115.004 256L2 178.5L203.374 178.5L317.942 256H115.004Z" fill="#373F44" stroke="#373F44"/>
<g filter="url(#filter0_b_17_641)">
<path d="M1 833L1277 833V0.999993L1 0.999993L1 833Z" fill="#090C0C" fill-opacity="0.5"/>
</g>
<defs>
<filter id="filter0_b_17_641" x="-3" y="-3" width="1284" height="840" filterUnits="userSpaceOnUse" color-interpolation-filters="sRGB">
<feFlood flood-opacity="0" result="BackgroundImageFix"/>
<feGaussianBlur in="BackgroundImageFix" stdDeviation="2"/>
<feComposite in2="SourceAlpha" operator="in" result="effect1_backgroundBlur_17_641"/>
<feBlend mode="normal" in="SourceGraphic" in2="effect1_backgroundBlur_17_641" result="shape"/>
</filter>
<linearGradient id="paint0_linear_17_641" x1="637.5" y1="0" x2="637.5" y2="832" gradientUnits="userSpaceOnUse">
<stop offset="0.588228" stop-color="#E1EAEE"/>
<stop offset="1" stop-color="#242D30"/>
</linearGradient>
</defs>
</svg>
