<svg width="186" height="235" viewBox="0 0 186 235" fill="none" xmlns="http://www.w3.org/2000/svg">
<rect x="1.5" y="1.5" width="169.548" height="109.457" fill="#E1E3E5" stroke="#424B50" stroke-width="3"/>
<path d="M65.793 41.1084C65.793 55.4484 54.3863 67.0415 40.3542 67.0415C26.322 67.0415 14.9153 55.4484 14.9153 41.1084C14.9153 26.7684 26.322 15.1753 40.3542 15.1753C54.3863 15.1753 65.793 26.7684 65.793 41.1084Z" fill="#E1E3E5" stroke="#424B50" stroke-width="2"/>
<path d="M21.3747 53.4884C21.3747 52.6869 21.5928 51.6729 21.0206 51.09C20.6389 50.7012 20.2549 50.2463 19.9408 49.7917C19.3457 48.9302 19.133 49.3388 19.3124 50.1613C19.3849 50.4939 20.1001 52.3282 20.1001 51.7843C20.1001 50.6213 19.6401 49.3505 19.1796 48.2949C18.2954 46.2682 18.8719 44.0681 18.1087 42.0465C17.9394 41.5984 17.7923 40.7355 17.8785 40.2523C17.9638 39.7744 17.9177 38.7336 17.3121 39.6933C16.6134 40.8004 16.7544 41.9585 16.7544 43.2277C16.7544 44.1699 16.4271 46.6747 17.3917 47.1949C18.6161 47.8552 20.4631 43.7633 20.7905 43.1916C22.9115 39.4876 25.1732 35.7858 27.0039 31.9211C27.0153 31.8969 27.7559 30.1623 27.4641 30.7309C26.8659 31.8968 26.5044 33.0719 26.402 34.3826C26.1987 36.9859 26.3135 39.6264 26.3135 42.2359C26.3135 42.4119 26.4256 45.3 26.7295 44.8236C27.675 43.3419 28.2472 41.4872 28.836 39.8375C29.4067 38.2388 29.0335 39.3132 28.6944 40.2433C27.9187 42.3707 27.688 44.7562 27.7562 47.0146C27.7831 47.9046 28.3179 49.3412 28.9423 47.763C29.9841 45.1294 30.059 41.5427 29.4025 38.8096C29.3354 38.5302 28.2172 35.5136 27.6235 36.8801C27.0979 38.0897 27.1184 39.7375 27.1101 41.0277C27.0999 42.6135 27.0885 44.2026 27.1101 45.7884C27.1173 46.3157 27.4423 46.8124 27.4287 45.9867C27.4116 44.9418 26.8419 44.3809 25.8356 44.2736C23.6475 44.0403 23.3411 47.3163 22.8439 48.9441C22.6016 49.7376 22.3435 50.5074 22.1359 51.3064C22.0295 51.7158 22.0119 49.7268 22.0119 49.5122C22.0119 48.0468 21.953 46.5665 22.0296 45.1031C22.0708 44.3172 22.7757 42.1542 22.304 41.4334C22.2169 41.3003 21.0717 41.6556 20.8259 41.6318C20.3015 41.5809 19.7412 40.9075 19.4717 40.4957C18.9742 39.7355 18.1883 38.3615 18.1883 40.0179C18.1883 40.8834 18.1883 41.749 18.1883 42.6146" stroke="#424B50" stroke-width="5" stroke-linecap="round"/>
<path d="M27.7477 40.1802C30.547 37.548 33.4718 34.8628 35.8021 31.7769C37.5046 29.5223 35.0517 31.1313 34.2001 31.831C31.9865 33.6495 29.5893 35.2466 27.2786 36.9343C25.7684 38.0373 24.2509 39.1552 22.7823 40.3154C22.5253 40.5184 21.4559 41.7575 21.5697 40.7572C21.6527 40.0285 23.0553 37.2575 22.4548 36.6457C21.9575 36.1391 20.5998 38.5926 20.4191 38.8818C20.3496 38.9931 19.8359 39.9309 19.8084 39.7203C19.7217 39.0581 20.5506 38.3721 20.8971 37.908C21.741 36.7776 22.4471 35.4117 23.4019 34.3916C25.3607 32.2988 27.2218 30.1268 29.6949 28.6572C31.5397 27.5609 34.0368 26.4948 36.1916 26.385C38.073 26.2892 40.0604 26.3502 41.9182 26.6285C42.9963 26.79 48.41 28.1155 46.5472 29.8023C45.5875 30.6712 44.5242 31.3423 43.4848 32.0654C40.9851 33.8044 38.838 35.6983 36.7403 37.908C36.636 38.0179 34.919 40.3778 35.3242 40.4957C36.7567 40.9127 37.6775 37.8149 38.9 37.7457C41.1317 37.6194 43.3938 37.2422 45.5559 36.6457C45.9788 36.5291 46.6222 36.4611 46.9544 36.1228C47.1032 35.9712 47.0133 35.6312 47.096 35.4375C47.747 33.9123 49.4204 32.6932 49.5654 30.9203C49.664 29.7147 49.5863 28.1941 48.1758 27.8818C47.5851 27.7509 46.9052 27.8457 46.2994 27.8457C44.7168 27.8457 43.2765 27.4032 41.7323 27.0342C39.3676 26.4692 37.1063 26.2227 34.678 26.2227C32.4966 26.2227 30.5319 26.124 28.5089 27.0703C25.1769 28.6289 22.826 31.3687 20.3483 34.0129C19.3169 35.1136 18.4248 36.768 17.9054 38.1966C17.3507 39.7222 17.3485 38.3513 17.5514 37.4211C17.7123 36.6835 18.348 36.0083 18.348 35.2301C18.348 34.5569 18.7948 33.395 19.1446 32.8408C19.5907 32.1338 19.8749 31.3326 20.2952 30.6047C20.66 29.9729 21.2212 29.456 21.5343 28.7383C21.798 28.134 22.3264 27.33 22.7381 26.7908C24.8842 23.9799 27.7668 21.7224 31.1288 20.6686C33.1273 20.0422 35.123 19.2582 37.2271 18.9284C38.8317 18.677 43.7097 18.5948 42.0863 18.5948" stroke="#424B50" stroke-width="5" stroke-linecap="round"/>
<path d="M42.0859 18.5948C38.3745 18.5948 35.2197 20.3642 31.7568 21.4981C31.6785 21.5237 27.7061 22.6108 28.42 23.2653C29.1305 23.9167 31.4981 22.2397 31.9604 22.021C34.4003 20.867 37.5963 20.525 40.2626 20.9571C40.829 21.0489 43.6162 21.4506 42.2098 22.2915C39.1368 24.129 35.4977 22.7155 32.2259 23.635C30.866 24.0171 29.1998 25.1512 28.2253 23.662C27.8501 23.0888 27.7642 22.1285 27.9155 21.435C28.1171 20.5107 28.9274 20.5541 29.6237 20.344C31.1297 19.8894 32.7966 19.6746 34.2794 18.9194C35.1143 18.4941 36.1565 18.1608 37.0674 17.9546C37.5627 17.8425 38.3669 18.0793 38.8996 18.1079C40.75 18.2071 42.0955 19.2509 43.8384 19.6948C44.6371 19.8982 45.4246 20.0459 46.2193 20.2989C46.4104 20.3597 47.8129 20.7089 47.1841 21.0292" stroke="#424B50" stroke-width="5" stroke-linecap="round"/>
<path d="M42.4047 20.0556C42.1123 20.0184 41.5912 18.726 41.6081 18.4326C41.6549 17.622 42.7 17.7835 43.2809 17.7835C43.9538 17.7835 44.3977 18.2756 44.9538 18.5589C45.5654 18.8704 46.4546 18.8811 47.1134 19.0728C47.4214 19.1625 47.4643 19.4431 47.7418 19.5687C48.156 19.7562 48.5366 19.9491 48.9721 20.0917C49.9313 20.4057 50.8081 20.7766 51.7248 21.1917C52.4257 21.509 52.8366 22.2193 53.4861 22.5802C54.058 22.898 54.5827 23.3727 55.0704 23.8695C56.157 24.9764 57.0346 26.2597 58.1771 27.3589C59.2373 28.3789 61.1114 29.0667 61.2042 30.7671C61.272 32.0112 61.6821 33.4109 61.6821 34.6622C61.6821 35.3792 61.8415 36.1001 61.8415 36.8532C61.8415 37.2047 61.8177 37.6657 61.5936 37.0786C61.2493 36.1767 61.1503 35.2189 60.8501 34.3016C60.1469 32.1523 58.1208 30.9857 56.3007 29.9556C53.4779 28.3581 51.3175 25.914 48.8571 23.7974C46.9151 22.1269 44.868 20.5425 42.2454 20.5425C41.8059 20.5425 41.7952 21.1239 42.1215 21.354C43.1977 22.113 44.2524 22.8917 45.2901 23.7163C46.7133 24.8471 48.1543 25.9753 49.6359 27.0253C50.2639 27.4703 50.6728 27.8851 49.5386 27.4851C47.388 26.7268 45.6369 25.7699 43.2721 25.736C42.5625 25.7258 39.3715 25.2183 39.2272 26.3942C39.1141 27.3158 39.6222 27.7446 40.4309 28.0802C41.1068 28.3607 41.872 28.4379 42.5817 28.5851C44.004 28.8803 45.3372 29.479 46.7063 29.9556C48.6073 30.6175 51.3648 31.5162 52.4417 33.436C53.2197 34.823 49.8504 34.8118 49.2111 34.8335C44.5272 34.9926 39.6982 36.2514 35.3416 37.9442C33.7345 38.5687 31.6523 40.031 31.0931 41.7672C30.2256 44.4606 30.6152 47.6022 30.6152 50.4049C30.6152 51.3374 30.3556 51.1674 30.5444 50.2336C31.0674 47.6458 31.9396 45.2825 32.8456 42.8131C33.0617 42.2242 33.4829 40.754 33.4829 42.2C33.4829 44.0634 33.4829 45.9268 33.4829 47.7902C33.4829 48.0106 33.5553 49.6639 33.5714 49.6475C33.9142 49.2983 34.1125 48.6311 34.2795 48.1869C34.976 46.3341 35.6234 44.5398 36.5453 42.777C37.3916 41.159 38.3571 39.6092 39.1829 37.9803C39.1886 37.969 39.7159 36.8464 39.8202 37.2049C40.1791 38.4388 39.1975 40.1176 38.8289 41.2442C38.1982 43.1716 38.3409 45.4561 36.8286 46.9967" stroke="#424B50" stroke-width="5" stroke-linecap="round"/>
<path d="M38.7404 44.3999C38.2367 45.0413 38.4354 47.6309 38.6607 48.4573C38.8847 49.2785 39.3397 49.7135 39.7759 50.4048C40.5084 51.5654 40.8106 52.9173 41.2098 54.2278C41.4875 55.1392 41.6081 56.1779 41.6081 57.1311C41.6081 57.268 41.7206 58.6652 41.5992 58.727C41.5414 58.7565 40.526 55.9134 40.4575 55.7245C39.6126 53.3969 38.7602 51.239 37.6606 49.0163C37.5498 48.7924 36.5236 46.4803 36.5099 47.1048C36.478 48.5698 36.5099 50.0395 36.5099 51.5048C36.5099 53.2619 36.4162 55.0424 36.6338 56.7885C36.8186 58.2707 35.5012 55.2113 35.3947 54.9852C35.155 54.4762 32.7723 50.0006 32.0844 50.6753C31.3623 51.3837 32.2741 53.9393 32.4916 54.7147C32.5873 55.0561 32.9997 56.389 32.9961 56.3557C32.7963 54.5243 31.502 52.9367 30.4382 51.5319C29.688 50.5413 28.8871 49.5719 27.9776 48.7278C27.7263 48.4946 27.1299 47.8442 26.7384 47.8442C26.3814 47.8442 26.9868 50.4291 27.0394 50.6483C27.3039 51.7506 27.5849 52.8298 27.8183 53.9393C27.9789 54.7032 27.3989 52.4322 27.1013 51.7122C26.9603 51.3709 25.2684 48.478 24.9594 49.6114C24.5068 51.2711 25.1984 53.1162 25.1984 54.7868C25.1984 55.3304 25.3392 56.1104 25.1895 56.6442C25.0972 56.9734 24.5339 55.9189 24.4814 55.8417C24.037 55.1879 23.7008 55.2737 22.9679 55.2737C22.7799 55.2737 21.5518 54.7772 21.5518 54.868C21.5518 55.0644 22.4882 55.5965 22.6493 55.7606C22.9636 56.0808 23.5213 56.4571 23.9238 56.6983C24.62 57.1155 25.0411 57.8928 25.8356 58.3213C26.1573 58.4948 26.6632 58.9479 26.9155 59.2049C27.2829 59.5792 27.711 59.6907 28.0307 60.0164C28.3488 60.3405 28.6693 60.6669 28.9866 60.9901C29.2779 61.2869 29.7699 61.335 30.1018 61.6393C30.8744 62.3476 32.0493 62.487 32.9253 62.9828C33.7188 63.4318 34.8951 63.8254 35.793 64.0287C36.8883 64.2766 38.3137 64.3623 39.4485 64.3623C41.3072 64.3623 43.1659 64.3623 45.0246 64.3623C45.974 64.3623 46.8729 63.8754 47.8569 63.8754C49.0957 63.8754 51.3265 63.4829 51.3265 61.7655C51.3265 61.6612 49.1005 60.6788 48.7597 60.1967C47.3475 58.1987 45.6576 56.4135 44.2014 54.4442C44.1789 54.4137 43.2113 52.802 43.0774 53.4704C42.9929 53.8919 43.042 54.3584 43.042 54.7868C43.042 56.5757 43.4016 58.1249 43.9182 59.809C44.0083 60.1026 44.7131 61.6418 44.4404 61.8918C43.891 62.3955 42.8337 61.2787 42.2454 61.2787C39.8624 61.2787 37.349 61.3113 35.2354 59.9803C33.9248 59.1549 32.8696 58.3898 31.695 57.3836C30.9034 56.7054 30.2056 55.8479 29.4999 55.0753C28.8438 54.3569 27.8929 53.5989 27.4642 52.677C27.2189 52.1494 29.5301 53.6953 29.8186 53.777C31.6557 54.2968 33.3708 55.2074 35.2 55.7606C36.9442 56.2881 38.7131 56.5118 40.5017 56.8155C41.7602 57.0292 43.7544 56.9159 44.8653 57.636C45.4326 58.0038 45.8965 58.5406 46.4761 58.9163C47.2093 59.3916 48.054 59.568 48.6977 60.2237C48.9895 60.521 49.2883 61.2575 49.8041 61.1073C49.986 61.0544 49.927 59.7727 49.8838 59.5745C49.6186 58.3591 49.4835 57.3462 48.7066 56.3286C48.4345 55.9723 48.238 55.3759 48.0162 54.9491C47.7707 54.4767 47.3277 54.0602 47.0249 53.6147C46.3047 52.5549 45.4202 51.7031 44.8299 50.5671C44.3103 49.5675 43.6839 48.6484 43.1659 47.6458C42.4909 46.3394 42.1673 44.6036 40.8115 43.913" stroke="#424B50" stroke-width="5" stroke-linecap="round"/>
<path d="M52.3242 61.8416C52.2868 61.461 51.8279 61.1227 51.626 60.8142C51.5122 60.6404 51.332 60.4702 51.25 60.2823C51.1696 60.0979 50.897 59.958 50.7666 59.805C50.4895 59.4801 50.2245 59.1558 49.9609 58.8201C49.6739 58.4547 49.3662 58.1395 49.1254 57.738C48.6551 56.954 48.175 56.1733 47.6752 55.4095C47.5119 55.16 47.1047 54.3681 47.1978 54.6527C47.3472 55.1093 47.8784 55.3991 48.2541 55.6588C49.066 56.22 49.8341 57.1115 50.31 57.9842C50.4781 58.2925 50.8445 58.6161 51.1157 58.8323C51.5619 59.1881 51.8033 59.6785 52.1631 60.0907C52.4956 60.4719 52.8219 60.8371 53.1836 61.1851C53.4359 61.4278 53.4767 61.2068 53.3447 60.9662C53.2332 60.7629 52.9917 60.376 52.7837 60.2549C52.6141 60.1562 52.4651 59.906 52.3242 59.7625C52.0449 59.478 51.7264 59.2569 51.4499 58.9752C51.0927 58.6113 50.8088 58.2035 50.4145 57.8748C50.1691 57.6703 49.9697 57.3989 49.7998 57.124C49.4584 56.5716 48.9929 56.0038 48.7673 55.3852C48.5101 54.6797 48.1759 54.2176 47.7319 53.6647C47.3424 53.1798 46.8287 52.825 46.4577 52.3212C46.2263 52.0068 45.9846 51.6558 45.8013 51.3089C45.6688 51.0584 45.4151 50.6299 45.4521 51.2329C45.488 51.8171 46.146 52.2701 46.5472 52.6069C47.4997 53.4063 48.3787 54.2659 49.2507 55.1542C49.7525 55.6654 50.287 56.2867 50.9546 56.589C51.1347 56.6705 51.5505 57.114 51.4111 56.972" stroke="#424B50" stroke-width="5" stroke-linecap="round"/>
<path d="M41.7456 41.5809L56.5885 60.4813" stroke="#424B50"/>
<path d="M41.11 38.6378C41.0975 38.5366 42.2494 38.587 42.4459 38.587C42.6561 38.587 42.8664 38.587 43.0766 38.587C44.0131 38.587 44.8631 38.4186 45.79 38.2433C46.6377 38.0829 47.5435 37.9784 48.4066 37.9784C48.4534 37.9784 48.6659 37.972 48.6334 37.9897C48.3593 38.1386 48.1073 38.3301 47.834 38.48C47.6669 38.5716 47.4809 38.6085 47.3085 38.511C46.9801 38.3251 47.4955 38.2757 47.6708 38.2433C47.9425 38.193 48.2522 38.232 48.5283 38.232C48.7025 38.232 48.8768 38.232 49.051 38.232C49.262 38.232 49.1657 38.5307 49.051 38.5307C49.0008 38.5307 49.0945 38.4368 49.1257 38.4349C49.2246 38.429 49.3254 38.4349 49.4245 38.4349C49.5904 38.4349 49.7564 38.4349 49.9223 38.4349C50.2651 38.4349 50.5292 38.5363 50.8683 38.5363C51.6786 38.5363 52.4773 38.6378 53.2885 38.6378C54.463 38.6378 55.6263 38.7727 56.7985 38.7899C56.9113 38.7916 58.53 38.8846 58.53 38.8632C58.53 38.6887 58.4117 38.4707 58.3613 38.3053C58.233 37.8842 58.0971 37.464 57.9602 37.0458C57.8322 36.6546 57.5158 36.0168 57.1249 35.8539C56.6199 35.6435 56.0014 35.7627 55.4902 35.8708C55.0892 35.9556 54.8941 35.9708 54.6991 35.5637C54.479 35.104 54.2756 34.6371 54.1072 34.1548C53.8593 33.4445 53.9651 32.8206 53.9551 32.0951C53.9506 31.7666 53.7705 31.4277 54.1321 31.8697C54.449 32.2571 54.7353 32.6147 55.1611 32.8953C56.1186 33.5265 57.1298 34.0782 58.0902 34.7071C58.817 35.183 59.4713 35.6356 60.0015 36.3301C60.1295 36.4978 60.1741 36.804 60.2394 37.0035C60.3514 37.346 60.2124 37.0377 60.0845 36.8457C59.0486 35.2916 57.9886 33.6887 56.7653 32.2811C56.3559 31.81 55.8398 31.1674 55.2108 30.9906C55.1298 30.9678 54.9516 31.0808 54.8402 31.0808C54.4741 31.0808 54.1148 30.9969 53.756 30.9286C53.5595 30.8912 52.9587 30.8779 53.1585 30.8779" stroke="#424B50" stroke-width="5" stroke-linecap="round"/>
<path d="M42.3049 37.7248C42.6571 37.7248 43.0094 37.7217 43.3615 37.7248C43.696 37.7277 44.294 37.7489 44.5841 37.9389C44.7551 38.0509 44.8559 38.0543 45.0543 38.1192C45.2235 38.1746 45.6108 38.1916 45.6407 38.4348C45.6543 38.5456 45.6835 38.7356 45.79 38.7899" stroke="#424B50" stroke-width="5" stroke-linecap="round"/>
<path d="M63.116 34.631C63.116 34.9771 63.3626 35.3122 63.4534 35.6453C63.5389 35.9588 63.7499 36.2192 63.8517 36.5188C63.9665 36.8566 63.9686 37.2492 64.1615 37.5614C64.2069 37.6349 64.2847 37.7038 64.2583 37.798C64.2269 37.9099 64.0784 37.7752 64.0619 37.7248" stroke="#424B50" stroke-width="5" stroke-linecap="round"/>
<path d="M60.1784 38.9421C60.1784 39.0752 60.0874 39.0426 59.9792 39.0426" stroke="#424B50" stroke-width="5" stroke-linecap="round"/>
<path d="M78.8528 85.9969C80.7082 84.5794 93.6956 57.6464 98.334 55.2838C102.972 52.9211 116.887 53.8661 117.815 54.3387C118.743 54.8113 118.743 55.2838 119.67 55.2838H130.803C131.73 55.2838 132.194 54.3387 133.122 54.3387C134.05 54.3387 151.212 53.3936 154.923 55.7562C158.633 58.1187 159.097 59.0639 160.025 61.8988C160.952 64.7338 166.055 120.018 166.055 123.325C166.055 126.633 166.519 129.94 164.663 131.83C162.808 133.72 162.406 133.817 161.416 134.193C160.551 134.522 159.097 134.665 157.706 134.665C156.314 134.665 154.459 134.193 154.459 134.193C154.459 134.193 153.2 133.469 152.603 132.775C151.584 131.589 152.139 132.303 151.212 128.995C150.284 125.688 148.135 83.1619 146.573 82.2168C145.012 81.2717 143.79 84.1068 143.79 87.887C143.79 91.6672 146.28 227.75 146.28 227.75C146.28 227.75 146.28 230.113 144.888 231.53C143.497 232.948 141.178 232.948 141.178 232.948H136.075H132.828C132.828 232.948 127.726 233.893 127.726 227.75V148.841C127.726 148.841 127.262 146.478 125.407 146.478C123.552 146.478 123.088 148.841 123.088 148.841L122.624 228.223C122.624 232.948 118.449 232.948 118.449 232.948H108.245C108.245 232.948 105.926 232.948 104.534 231.53C103.143 230.113 103.143 227.75 103.143 227.75C103.143 227.75 105.926 82.6894 105.462 80.7993C104.998 78.9093 103.436 78.4367 103.436 78.4367C103.436 78.4367 101.581 77.4921 99.7254 79.3817C97.87 81.2713 87.666 100.172 86.738 101.117C85.81 102.062 86.0884 102.026 84.4188 102.062C82.1787 102.111 76.5335 100.172 76.5335 100.172L56.1246 93.0845C56.1246 93.0845 50.0947 90.7219 50.0947 87.887C50.0947 86.6492 50.5586 85.0518 51.0223 84.1068C52.182 81.7437 54.2693 77.9642 58.4438 79.3817C62.6184 80.7993 76.9974 87.4143 78.8528 85.9969Z" fill="#E1E3E5"/>
<path d="M119.67 55.2838C118.743 55.2838 118.743 54.8113 117.815 54.3387C116.887 53.8661 102.972 52.9211 98.334 55.2838C93.6956 57.6464 80.7082 84.5794 78.8528 85.9969C76.9974 87.4143 62.6184 80.7993 58.4438 79.3817C54.2693 77.9642 52.182 81.7437 51.0223 84.1068C50.5586 85.0518 50.0947 86.6492 50.0947 87.887C50.0947 90.7219 56.1246 93.0845 56.1246 93.0845L76.5335 100.172C76.5335 100.172 82.1787 102.111 84.4188 102.062C86.0884 102.026 85.81 102.062 86.738 101.117C87.666 100.172 97.87 81.2713 99.7254 79.3817C101.581 77.4921 103.436 78.4367 103.436 78.4367C103.436 78.4367 104.998 78.9093 105.462 80.7993C105.926 82.6894 103.143 227.75 103.143 227.75C103.143 227.75 103.143 230.113 104.534 231.53C105.926 232.948 108.245 232.948 108.245 232.948H118.449C118.449 232.948 122.624 232.948 122.624 228.223L123.088 148.841C123.088 148.841 123.552 146.478 125.407 146.478C127.262 146.478 127.726 148.841 127.726 148.841M119.67 55.2838C120.598 55.2838 129.875 55.2838 130.803 55.2838M119.67 55.2838H130.803M130.803 55.2838C131.73 55.2838 132.194 54.3387 133.122 54.3387C134.05 54.3387 151.212 53.3936 154.923 55.7562C158.633 58.1187 159.097 59.0639 160.025 61.8988C160.952 64.7338 166.055 120.018 166.055 123.325C166.055 126.633 166.519 129.94 164.663 131.83C162.808 133.72 162.406 133.817 161.416 134.193C160.551 134.522 159.097 134.665 157.706 134.665C156.314 134.665 154.459 134.193 154.459 134.193C154.459 134.193 153.2 133.469 152.603 132.775C151.584 131.589 152.139 132.303 151.212 128.995C150.284 125.688 148.135 83.1619 146.573 82.2168C145.012 81.2717 143.79 84.1068 143.79 87.887C143.79 91.6672 146.28 227.75 146.28 227.75C146.28 227.75 146.28 230.113 144.888 231.53C143.497 232.948 141.178 232.948 141.178 232.948H136.075H132.828C132.828 232.948 127.726 233.893 127.726 227.75M127.726 227.75C127.726 221.607 127.726 148.841 127.726 148.841M127.726 227.75V148.841" stroke="#424B50" stroke-width="3"/>
<path d="M141.925 30.6582C141.925 40.0335 134.471 47.5861 125.335 47.5861C116.199 47.5861 108.745 40.0335 108.745 30.6582C108.745 21.2829 116.199 13.7303 125.335 13.7303C134.471 13.7303 141.925 21.2829 141.925 30.6582Z" fill="#E1E3E5" stroke="#424B50" stroke-width="3"/>
<line x1="40.3901" y1="14.1753" x2="40.3901" y2="68.0415" stroke="#424B50"/>
<line x1="13.9153" y1="41.0809" x2="66.793" y2="41.0809" stroke="#424B50"/>
<path d="M40.8179 41.1084L56.5884 60.9538" stroke="#424B50"/>
<path d="M40.8117 40.9917C40.5369 41.0196 38.4397 42.2357 38.6166 41.6048C38.869 40.7049 39.6406 40.0645 40.2098 39.3687C40.2567 39.3114 41.4776 37.7638 41.0329 37.7638C40.2942 37.7638 39.1201 39.4425 38.7494 40.0089C38.5839 40.2617 37.7027 41.82 38.1387 40.7572C38.5327 39.7967 39.3907 39.1566 39.8204 38.2326C39.9474 37.9593 39.3932 38.1549 39.3424 38.1695C38.4608 38.4221 37.7844 38.9518 37.0766 39.522C36.8317 39.7192 35.1756 41.4199 34.855 41.2892C34.7263 41.2368 35.5242 40.0326 35.5542 39.9818C36.1418 38.987 36.5445 37.9433 36.988 36.8802C37.695 35.1855 35.5285 37.9595 35.3241 38.2507C34.7641 39.0481 34.2702 39.8893 33.6601 40.649C33.0304 41.4331 34.0196 40.2808 34.1203 40.1621C35.4845 38.5544 36.9577 36.7357 37.9882 34.8695C38.8596 33.2913 35.4842 37.441 34.1911 38.6834C33.7545 39.1029 33.3327 39.5642 33.1113 40.1441C32.845 40.8418 34.3473 39.3316 34.9346 38.8818C38.2955 36.3078 41.8254 33.9639 45.3788 31.6777C47.7705 30.1389 50.192 28.4624 52.8136 27.3408C53.8188 26.9107 52.4669 28.1436 52.3357 28.2785C51.3944 29.2459 50.4335 30.1941 49.5033 31.1727C48.015 32.7386 46.3916 34.3661 45.2991 36.258C45.1922 36.4431 44.8963 37.1184 45.1487 36.5015C45.4144 35.8517 45.6899 35.1664 45.724 34.4547C45.832 32.1983 42.2453 35.0576 41.7676 35.4736C40.6194 36.4734 37.46 39.7895 38.5281 38.7015C39.3501 37.8641 40.8817 36.5013 41.1038 35.2572C41.1614 34.9341 40.5005 35.522 40.2629 35.7441C39.562 36.3993 39.0075 37.1748 38.4485 37.9531C38.4484 37.9532 37.8395 38.8353 37.8908 38.8457C38.1405 38.8966 38.7807 38.2327 38.8379 38.1785C39.7871 37.2806 40.6364 36.2562 41.4135 35.2031C41.9467 34.4806 46.7999 26.9731 42.9713 28.3145C41.4018 28.8645 40.0669 30.1028 38.829 31.1818C37.4057 32.4225 35.999 33.7321 34.7133 35.1219C34.3446 35.5206 33.6256 36.1177 33.5185 36.6998C33.4718 36.9533 35.2696 35.5074 35.2975 35.4826C36.663 34.2655 37.9886 32.9937 39.2716 31.6867C40.0321 30.912 40.2965 30.3382 39.307 31.4342C38.4032 32.4354 37.6025 33.552 36.7845 34.626C36.3609 35.1821 35.8883 35.7913 35.7489 36.5015C35.6423 37.0444 36.365 36.4764 36.4747 36.3933C37.3781 35.7084 38.2995 34.9073 38.9441 33.9588C39.3705 33.3314 39.2078 33.2844 38.7051 33.7965C37.9526 34.5632 37.2881 35.435 36.6075 36.267C36.1451 36.8323 35.7041 37.4099 35.271 37.9982C34.9152 38.4813 36.1136 36.9833 36.1383 36.9523C37.0859 35.765 38.053 34.5824 38.9264 33.3367C38.9555 33.2952 39.7557 31.9423 39.5548 32.0473C38.5982 32.5477 37.7636 33.7098 37.0234 34.4637C35.5031 36.0126 33.9536 37.5267 32.4032 39.0441C30.9454 40.4709 28.6783 42.1774 27.9423 44.2015C27.843 44.4746 28.2482 43.7089 28.3849 43.4531C29.9693 40.4867 31.7124 37.6014 33.4476 34.7252C34.7318 32.5967 36.0537 30.4823 37.0411 28.1883C37.0567 28.1523 37.9672 26.1113 37.2624 26.7096C35.5894 28.1298 34.4867 30.4897 33.3591 32.3539C32.9799 32.9809 32.6909 33.6064 32.4563 34.3015C32.4521 34.3141 32.2361 34.9162 32.2439 34.9146C32.5576 34.8507 33.0659 34.114 33.2618 33.9047C34.4162 32.6714 35.3377 31.2387 36.4481 29.9645C37.4178 28.8518 38.444 27.746 39.5902 26.8178C40.429 26.1386 39.4005 27.2387 39.2539 27.4039C37.6597 29.2006 35.949 30.9175 34.2796 32.6424C33.9968 32.9347 33.1385 33.7961 33.4565 33.5441C34.1464 32.9974 34.7181 32.2566 35.3772 31.6687C36.7661 30.4295 38.2767 29.3023 39.8912 28.3867C40.7015 27.9271 42.0017 27.1221 42.9979 27.2235C43.7144 27.2965 42.6836 29.2332 42.573 29.4867C42.0942 30.5841 41.9736 31.8299 41.6083 32.967C41.4625 33.4209 41.2317 34.1434 40.9002 34.4998C40.6735 34.7436 40.1921 35.5389 40.1921 35.2031C40.1921 34.8228 40.6491 34.2886 40.8117 33.9769C41.2473 33.1416 41.523 32.3107 41.6879 31.3801C41.9482 29.9118 43.1809 25.7669 41.387 24.8883C38.9795 23.7092 36.1044 26.2075 34.5275 27.7645C32.4886 29.7776 30.5293 32.0026 28.7389 34.2474C27.5501 35.7379 26.2554 37.4128 25.3932 39.1343C24.6989 40.5206 27.1397 36.5761 28.1105 35.3744C31.2219 31.5228 35.4054 28.3253 39.2982 25.3211C41.5472 23.5854 39.2786 26.2221 38.7759 26.9981C37.8579 28.4156 36.9646 29.7125 35.8728 31.0014C35.0722 31.9466 34.2795 32.877 33.4122 33.7605C33.2698 33.9056 31.865 35.5647 31.9164 34.7793C32.0202 33.1941 32.743 31.5902 32.9166 29.9736C32.9471 29.6889 33.3606 27.3417 32.6157 28.0801C30.8731 29.8072 29.7157 31.8117 28.6947 34.0219C28.2703 34.9407 27.7946 35.8467 27.3493 36.7539C27.2489 36.9586 27.0676 37.5399 26.951 37.4211" stroke="#424B50" stroke-width="3" stroke-linecap="round"/>
<path d="M25.6765 56.7344C25.7549 56.0954 26.8503 57.4419 26.9157 57.7082C27.0675 58.3267 26.9511 59.0991 26.9511 59.7369C26.9511 60.1383 27.0362 60.5616 26.7917 60.8729C26.3333 61.4566 26.3809 60.8427 26.4731 60.4672" stroke="#424B50" stroke-width="5" stroke-linecap="round"/>
<path d="M57.8882 37.5726C58.445 37.5726 58.9101 37.5971 59.4316 37.8037C59.8002 37.9497 60.19 38.0325 60.5656 38.1418C60.8275 38.218 61.1244 38.1812 61.3982 38.1812C61.8414 38.1812 61.2324 38.4348 61.3982 38.4348C61.6122 38.4348 61.7726 38.3793 61.9818 38.3841C62.2027 38.3892 62.4164 38.4348 62.6401 38.4348C62.73 38.4348 62.8524 38.4125 62.9388 38.4377C62.9891 38.4523 62.9604 38.6033 63.0052 38.649C63.0829 38.7282 63.1035 38.7324 63.2154 38.7391C63.3323 38.7462 63.6732 38.8002 63.4644 38.942" stroke="#424B50" stroke-width="5" stroke-linecap="round"/>
<path d="M56.0959 24.2846C56.1062 24.2112 56.2047 24.4118 56.2204 24.4367C56.3046 24.5701 56.434 24.6656 56.5136 24.7917C56.6699 25.0394 56.8719 25.184 57.0806 25.3891C57.2748 25.5799 57.4342 25.795 57.5647 26.0343C57.601 26.1009 57.6891 26.3337 57.6891 26.3133" stroke="#424B50" stroke-width="5" stroke-linecap="round"/>
<path d="M55.4714 60.9061C55.5597 60.9161 55.6384 60.9395 55.733 60.9395" stroke="#424B50" stroke-linecap="round"/>
</svg>
