<svg width="142" height="195" viewBox="0 0 142 195" fill="none" xmlns="http://www.w3.org/2000/svg">
<path d="M103.87 157.095L101.335 160.126L70.2721 151.537C70.2721 151.537 68.3917 150.502 67.7364 149.516C67.3701 148.964 67.1025 148 67.1025 148C54.2292 145.237 36.04 141.431 34.1382 140.926C32.2364 140.421 30.9686 139.41 30.9686 139.41C30.9686 139.41 29.4582 137.82 29.0668 136.884C28.6754 135.948 29.0668 134.358 29.0668 134.358L29.7007 130.316L36.04 98.9893L44.2811 112.631C44.2811 112.631 43.7263 117.861 43.6471 121.221C43.61 122.799 43.4616 123.691 43.6471 125.263C43.7883 126.458 44.2811 128.295 44.2811 128.295C44.2811 128.295 44.6561 130.015 45.5489 131.326C46.0807 132.107 46.5404 132.959 47.4507 133.852C48.113 134.502 48.676 134.926 49.3525 135.368C49.9864 135.783 49.9864 135.783 51.2543 136.288C52.9406 136.96 54.1463 137.41 55.6918 137.895C57.369 138.42 57.7721 138.484 59.4954 138.905C61.741 139.453 62.9622 139.855 65.2007 140.421C67.6643 141.044 71.54 141.937 71.54 141.937L103.87 149.516V157.095Z" fill="#E1E3E5" stroke="#424B50" stroke-width="2"/>
<path d="M75.9775 177.911L73.4418 180.943L42.3793 172.353C42.3793 172.353 40.4989 171.319 39.8436 170.332C39.4773 169.781 39.2097 168.817 39.2097 168.817C26.3363 166.054 8.1472 162.248 6.2454 161.743C4.3436 161.238 3.07574 160.227 3.07574 160.227C3.07574 160.227 1.5654 158.637 1.17397 157.701C0.782537 156.765 1.17397 155.174 1.17397 155.174L1.8079 151.132L8.14718 119.806L16.3883 133.448C16.3883 133.448 15.8335 138.678 15.7543 142.038C15.7171 143.616 15.5687 144.508 15.7543 146.08C15.8954 147.275 16.3882 149.111 16.3882 149.111C16.3882 149.111 16.7633 150.831 17.6561 152.143C18.1878 152.924 18.6476 153.776 19.5579 154.669C20.2202 155.319 20.7832 155.742 21.4597 156.185C22.0936 156.6 22.0936 156.6 23.3615 157.105C25.0478 157.777 26.2535 158.227 27.799 158.711C29.4762 159.237 29.8792 159.301 31.6025 159.722C33.8482 160.27 35.0693 160.671 37.3079 161.238C39.7714 161.861 43.6472 162.753 43.6472 162.753L75.9775 170.332V177.911Z" fill="#E1E3E5" stroke="#424B50" stroke-width="2"/>
<path d="M11.1493 57.5895C11.1493 57.5895 7.48434 39.7892 7.3457 28.2842C7.33143 27.1004 7.3457 25.2527 7.3457 25.2527L7.34575 23.7369L7.97968 22.2211C8.22724 21.6291 8.85913 20.7418 9.24754 20.2C9.76864 19.4732 10.3598 19.2364 11.1493 18.6842C12.0796 18.0335 13.685 17.1684 13.685 17.1684L51.0868 3.02107L55.5243 1.50528C55.5243 1.50528 57.4331 1.45738 58.6941 1.50527C59.7136 1.54399 61.2296 1.50528 61.2296 1.50528L64.3993 2.01054C75.7872 4.77299 92.9259 8.57896 93.56 9.08423C94.1941 9.58949 94.828 10.2228 94.828 11.1053C94.828 11.6105 94.828 12.6211 94.828 13.1263C94.828 13.6316 94.9366 14.758 94.828 15.1474C94.6871 15.6526 94.316 16.5238 93.56 17.1684C92.9505 17.6882 91.6584 18.179 91.6584 18.179C91.6584 18.179 90.6923 18.6409 90.0734 18.9369C89.4545 19.2328 89.1075 19.3988 88.4886 19.6948C87.8697 19.9907 58.06 28.7895 58.06 28.7895C58.06 28.7895 57.2095 29.0375 56.7921 29.8C56.3747 30.5625 56.7921 35.8632 56.7921 35.8632L52.3546 33.8421L46.0153 33.3369H44.7475V28.7895V26.7684L45.3814 25.7579L46.0153 24.7474L47.2832 23.7369L49.185 22.7263L70.7385 15.1474C70.7385 15.1474 70.8168 14.8293 70.7385 14.6421C70.5635 14.2235 69.4707 14.1369 69.4707 14.1369C69.4707 14.1369 66.0058 13.6921 63.7653 13.6316C62.7756 13.6049 62.2127 13.5366 61.2296 13.6316C60.2163 13.7295 59.6679 13.8935 58.6939 14.1369C57.4217 14.4547 55.5243 15.1474 55.5243 15.1474L24.4618 25.7579L22.56 26.7684L21.9261 28.2842L22.56 41.9263L11.1493 57.5895Z" fill="#E1E3E5"/>
<path d="M7.34575 23.7369L7.3457 25.2527C7.3457 25.2527 7.33143 27.1004 7.3457 28.2842C7.48434 39.7892 11.1493 57.5895 11.1493 57.5895L22.56 41.9263L21.9261 28.2842L22.56 26.7684L24.4618 25.7579L55.5243 15.1474C55.5243 15.1474 57.4217 14.4547 58.6939 14.1369C59.6679 13.8935 60.2163 13.7295 61.2296 13.6316C62.2127 13.5366 62.7756 13.6049 63.7653 13.6316C66.0058 13.6921 69.4707 14.1369 69.4707 14.1369C69.4707 14.1369 70.5635 14.2235 70.7385 14.6421C70.8168 14.8293 70.7385 15.1474 70.7385 15.1474L49.185 22.7263M7.34575 23.7369C7.34575 23.7369 7.73211 22.813 7.97968 22.2211M7.34575 23.7369L7.97968 22.2211M7.97968 22.2211C8.22724 21.6291 8.85913 20.7418 9.24754 20.2C9.76864 19.4732 10.3598 19.2364 11.1493 18.6842C12.0796 18.0335 13.685 17.1684 13.685 17.1684L51.0868 3.02107L55.5243 1.50528C55.5243 1.50528 57.4331 1.45738 58.6941 1.50527C59.7136 1.54399 61.2296 1.50528 61.2296 1.50528L64.3993 2.01054C75.7872 4.77299 92.9259 8.57896 93.56 9.08423C94.1941 9.58949 94.828 10.2228 94.828 11.1053C94.828 11.6105 94.828 12.6211 94.828 13.1263C94.828 13.6316 94.9366 14.758 94.828 15.1474C94.6871 15.6526 94.316 16.5238 93.56 17.1684C92.9505 17.6882 91.6584 18.179 91.6584 18.179C91.6584 18.179 90.6923 18.6409 90.0734 18.9369C89.4545 19.2328 89.1075 19.3988 88.4886 19.6948C87.8697 19.9907 58.06 28.7895 58.06 28.7895C58.06 28.7895 57.2095 29.0375 56.7921 29.8C56.3747 30.5625 56.7921 35.8632 56.7921 35.8632L52.3546 33.8421L46.0153 33.3369H44.7475V28.7895V26.7684L45.3814 25.7579L46.0153 24.7474L47.2832 23.7369M47.2832 23.7369C48.0259 23.3422 48.4423 23.121 49.185 22.7263M47.2832 23.7369L49.185 22.7263" stroke="#424B50" stroke-width="2"/>
<path d="M17.4887 48.4947C17.4887 48.4947 15.5869 29.8 15.5869 28.7895C15.5869 27.7789 15.9626 27.2737 16.2208 26.7684C16.4297 26.3598 16.5149 26.1062 16.8548 25.7579C17.4028 25.1963 18.7566 24.2421 18.7566 24.2421L21.2923 23.2316L52.3548 12.6211L58.0601 10.6C58.0601 10.6 59.7705 9.81946 60.5958 9.08421C61.191 8.55402 61.2298 8.57895 61.8637 7.56842C61.8637 7.56842 62.5759 6.35853 62.4976 5.54737C62.4376 4.92523 61.8637 4.03158 61.8637 4.03158C61.8637 4.03158 61.2298 3.02105 60.5958 2.51579C59.9619 2.01053 58.6941 1.50526 58.6941 1.50526L56.7923 1" stroke="#424B50" stroke-width="2"/>
<path d="M58.5809 53C58.5809 53 57 35.2872 57 34.3298C57 33.3723 57.3123 32.8936 57.527 32.4149C57.7006 32.0277 57.7714 31.7874 58.054 31.4574C58.5095 30.9254 59.6348 30.0213 59.6348 30.0213L61.7426 29.0638L88 20L92.8332 18C92.8332 18 93.728 17.1966 94.4141 16.5C94.9089 15.9977 95.468 15.4574 95.995 14.5C95.995 14.5 96.0601 13.0771 95.995 12.3085C95.9451 11.7191 95.468 10.8723 95.468 10.8723C95.468 10.8723 94.9411 9.91489 94.4141 9.43617C93.8872 8.95745 92.8332 8.47872 92.8332 8.47872L91.2524 8" stroke="#424B50" stroke-width="2"/>
<path d="M76.075 177.821L81.7804 171.758V164.684L34.2357 153.568C34.2357 153.568 32.1649 152.798 31.0661 152.052C29.4449 150.952 27.7989 149.021 27.7989 149.021C27.7989 149.021 27.7014 149.021 25.8971 145.989C24.0928 142.958 24.6293 140.937 24.6293 140.937L16.4857 133.358L15.2179 140.937C15.2179 140.937 14.9986 143.717 15.2179 145.484C15.3661 146.678 15.4478 147.359 15.8517 148.516C16.3574 149.963 16.8017 151.261 17.7536 152.558C18.2043 153.172 18.5683 153.461 19.0215 154.073C19.5835 154.834 20.2027 155.425 20.9232 156.095C21.8627 156.968 23.4589 157.61 23.4589 157.61C23.4589 157.61 25.3867 158.234 26.6286 158.621C28.599 159.234 31.7 160.137 31.7 160.137L76.075 170.242V177.821Z" fill="#E1E3E5" stroke="#424B50" stroke-width="2"/>
<path d="M103.968 157.004L109.673 150.941V143.867L62.1285 132.751C62.1285 132.751 60.0577 131.982 58.9588 131.236C57.3377 130.135 55.6917 128.204 55.6917 128.204C55.6917 128.204 55.5942 128.204 53.7899 125.172C51.9856 122.141 52.5221 120.12 52.5221 120.12L44.3785 112.541L43.1107 120.12C43.1107 120.12 42.8913 122.9 43.1106 124.667C43.2588 125.862 43.3406 126.543 43.7445 127.699C44.2502 129.146 44.6945 130.444 45.6464 131.741C46.0971 132.355 46.4611 132.644 46.9142 133.257C47.4763 134.017 48.0955 134.608 48.816 135.278C49.7554 136.151 51.3517 136.794 51.3517 136.794C51.3517 136.794 53.2794 137.418 54.5214 137.804C56.4918 138.417 59.5928 139.32 59.5928 139.32L103.968 149.425V157.004Z" fill="#E1E3E5" stroke="#424B50" stroke-width="2"/>
<path d="M88.4241 90.4103C88.4241 106.156 83.5483 120.355 75.7348 130.586C67.9224 140.816 57.2365 147.016 45.5491 147.016C33.8616 147.016 23.1757 140.816 15.3633 130.586C7.54989 120.355 2.67407 106.156 2.67407 90.4103C2.67407 74.6646 7.54989 60.4651 15.3633 50.2341C23.1757 40.0044 33.8616 33.805 45.5491 33.805C57.2365 33.805 67.9224 40.0044 75.7348 50.2341C83.5483 60.4651 88.4241 74.6646 88.4241 90.4103Z" fill="#E1E3E5" stroke="#424B50" stroke-width="3"/>
<path d="M122.714 102.053V131.863C122.714 131.863 123.934 142.71 122.714 149.547C121.742 154.996 120.965 158.12 118.277 163.19C115.814 167.834 113.637 170.16 110.036 174.305C106.029 178.916 103.624 181.474 98.6251 185.421C94.5042 188.675 87.2144 193 87.2144 193" stroke="#424B50" stroke-width="3"/>
<path d="M65.3195 89.905C65.3195 102.268 62.6677 113.386 58.4537 121.359C54.2039 129.399 48.5911 133.879 42.7848 133.879C36.9784 133.879 31.3656 129.399 27.1158 121.359C22.9018 113.386 20.25 102.268 20.25 89.905C20.25 77.5422 22.9018 66.4241 27.1158 58.4512C31.3656 50.4106 36.9784 45.9314 42.7848 45.9314C48.5911 45.9314 54.2039 50.4106 58.4537 58.4512C62.6677 66.4241 65.3195 77.5422 65.3195 89.905Z" fill="#424B50" stroke="#E1E3E5" stroke-width="3"/>
<path d="M70.7909 89.905C70.7909 102.268 68.1392 113.386 63.9252 121.359C59.6754 129.399 54.0625 133.879 48.2562 133.879C42.4499 133.879 36.837 129.399 32.5872 121.359C28.3732 113.386 25.7214 102.268 25.7214 89.905C25.7214 77.5422 28.3732 66.4241 32.5872 58.4512C36.837 50.4106 42.4499 45.9314 48.2562 45.9314C54.0625 45.9314 59.6754 50.4106 63.9252 58.4512C68.1392 66.4241 70.7909 77.5422 70.7909 89.905Z" fill="#424B50" stroke="#E1E3E5" stroke-width="3"/>
<path d="M75.3805 89.9051C75.3805 102.268 72.7288 113.386 68.5148 121.359C64.265 129.399 58.6521 133.879 52.8458 133.879C47.0395 133.879 41.4266 129.399 37.1768 121.359C32.9628 113.386 30.311 102.268 30.311 89.9051C30.311 77.5422 32.9628 66.4241 37.1768 58.4513C41.4266 50.4107 47.0395 45.9314 52.8458 45.9314C58.6521 45.9314 64.265 50.4107 68.5148 58.4513C72.7288 66.4241 75.3805 77.5422 75.3805 89.9051Z" fill="#424B50" stroke="#424B50" stroke-width="3"/>
<path d="M80.9701 89.9051C80.9701 102.268 78.3184 113.386 74.1044 121.359C69.8546 129.399 64.2417 133.879 58.4354 133.879C52.6291 133.879 47.0162 129.399 42.7664 121.359C38.5524 113.386 35.9006 102.268 35.9006 89.9051C35.9006 77.5422 38.5524 66.4241 42.7664 58.4513C47.0162 50.4107 52.6291 45.9314 58.4354 45.9314C64.2417 45.9314 69.8546 50.4107 74.1044 58.4513C78.3184 66.4241 80.9701 77.5422 80.9701 89.9051Z" fill="#424B50" stroke="#E1E3E5" stroke-width="3"/>
<path d="M85.4418 89.9051C85.4418 102.268 82.7901 113.386 78.576 121.359C74.3263 129.399 68.7134 133.879 62.9071 133.879C57.1007 133.879 51.4879 129.399 47.2381 121.359C43.0241 113.386 40.3723 102.268 40.3723 89.9051C40.3723 77.5422 43.0241 66.4241 47.2381 58.4513C51.4879 50.4107 57.1007 45.9314 62.9071 45.9314C68.7134 45.9314 74.3263 50.4107 78.576 58.4513C82.7901 66.4241 85.4418 77.5422 85.4418 89.9051Z" fill="#424B50" stroke="#424B50" stroke-width="3"/>
<path d="M89.9133 89.9051C89.9133 102.268 87.2615 113.386 83.0475 121.359C78.7977 129.399 73.1848 133.879 67.3785 133.879C61.5722 133.879 55.9593 129.399 51.7095 121.359C47.4955 113.386 44.8438 102.268 44.8438 89.9051C44.8438 77.5422 47.4955 66.4241 51.7095 58.4513C55.9593 50.4107 61.5722 45.9314 67.3785 45.9314C73.1848 45.9314 78.7977 50.4107 83.0475 58.4513C87.2615 66.4241 89.9133 77.5422 89.9133 89.9051Z" fill="#424B50" stroke="#E1E3E5" stroke-width="3"/>
<path d="M96.6208 89.9051C96.6208 102.268 93.969 113.386 89.755 121.359C85.5052 129.399 79.8924 133.879 74.086 133.879C68.2797 133.879 62.6668 129.399 58.417 121.359C54.203 113.386 51.5513 102.268 51.5513 89.9051C51.5513 77.5422 54.203 66.4241 58.417 58.4513C62.6668 50.4107 68.2797 45.9314 74.086 45.9314C79.8924 45.9314 85.5052 50.4107 89.755 58.4513C93.969 66.4241 96.6208 77.5422 96.6208 89.9051Z" fill="#424B50" stroke="#E1E3E5" stroke-width="3"/>
<path d="M95.4802 89.9263C95.4802 102.289 92.8284 113.407 88.6144 121.38C84.3646 129.421 78.7517 133.9 72.9454 133.9C67.1391 133.9 61.5262 129.421 57.2764 121.38C53.0624 113.407 50.4106 102.289 50.4106 89.9263C50.4106 77.5635 53.0624 66.4454 57.2764 58.4725C61.5262 50.4319 67.1391 45.9527 72.9454 45.9527C78.7517 45.9527 84.3646 50.4319 88.6144 58.4725C92.8284 66.4454 95.4802 77.5635 95.4802 89.9263Z" fill="#424B50" stroke="#E1E3E5" stroke-width="3"/>
<path d="M98.2839 90.9369C98.2839 103.3 95.6321 114.418 91.4181 122.391C87.1683 130.431 81.5554 134.911 75.7491 134.911C69.9428 134.911 64.3299 130.431 60.0801 122.391C55.8661 114.418 53.2144 103.3 53.2144 90.9369C53.2144 78.574 55.8661 67.4559 60.0801 59.4831C64.3299 51.4425 69.9428 46.9632 75.7491 46.9632C81.5554 46.9632 87.1683 51.4425 91.4181 59.4831C95.6321 67.4559 98.2839 78.574 98.2839 90.9369Z" fill="#424B50" stroke="#424B50" stroke-width="3"/>
<path d="M102.21 89.9051C102.21 102.268 99.5584 113.386 95.3444 121.359C91.0946 129.399 85.4817 133.879 79.6754 133.879C73.869 133.879 68.2562 129.399 64.0064 121.359C59.7924 113.386 57.1406 102.268 57.1406 89.9051C57.1406 77.5422 59.7924 66.4241 64.0064 58.4513C68.2562 50.4107 73.869 45.9314 79.6754 45.9314C85.4817 45.9314 91.0946 50.4107 95.3444 58.4513C99.5584 66.4241 102.21 77.5422 102.21 89.9051Z" fill="#424B50" stroke="#E1E3E5" stroke-width="3"/>
<path d="M108.918 89.9051C108.918 102.268 106.266 113.386 102.052 121.359C97.8021 129.399 92.1892 133.879 86.3829 133.879C80.5766 133.879 74.9637 129.399 70.7139 121.359C66.4999 113.386 63.8481 102.268 63.8481 89.9051C63.8481 77.5422 66.4999 66.4241 70.7139 58.4513C74.9637 50.4107 80.5766 45.9314 86.3829 45.9314C92.1892 45.9314 97.8021 50.4107 102.052 58.4513C106.266 66.4241 108.918 77.5422 108.918 89.9051Z" fill="#424B50" stroke="#E1E3E5" stroke-width="3"/>
<path d="M114.507 89.9051C114.507 102.268 111.855 113.386 107.641 121.359C103.391 129.399 97.7783 133.879 91.972 133.879C86.1657 133.879 80.5528 129.399 76.303 121.359C72.089 113.386 69.4373 102.268 69.4373 89.9051C69.4373 77.5422 72.089 66.4241 76.303 58.4513C80.5528 50.4107 86.1657 45.9314 91.972 45.9314C97.7783 45.9314 103.391 50.4107 107.641 58.4513C111.855 66.4241 114.507 77.5422 114.507 89.9051Z" fill="#424B50" stroke="#E1E3E5" stroke-width="3"/>
<path d="M117.861 89.9051C117.861 102.268 115.209 113.386 110.995 121.359C106.745 129.399 101.132 133.879 95.326 133.879C89.5197 133.879 83.9068 129.399 79.657 121.359C75.443 113.386 72.7913 102.268 72.7913 89.9051C72.7913 77.5422 75.443 66.4241 79.657 58.4513C83.9068 50.4107 89.5197 45.9314 95.326 45.9314C101.132 45.9314 106.745 50.4107 110.995 58.4513C115.209 66.4241 117.861 77.5422 117.861 89.9051Z" fill="#424B50" stroke="#E1E3E5" stroke-width="3"/>
<path d="M121.214 89.9051C121.214 102.268 118.563 113.386 114.349 121.359C110.099 129.399 104.486 133.879 98.6795 133.879C92.8732 133.879 87.2603 129.399 83.0106 121.359C78.7965 113.386 76.1448 102.268 76.1448 89.9051C76.1448 77.5422 78.7965 66.4241 83.0106 58.4513C87.2603 50.4107 92.8732 45.9314 98.6795 45.9314C104.486 45.9314 110.099 50.4107 114.349 58.4513C118.563 66.4241 121.214 77.5422 121.214 89.9051Z" fill="#424B50" stroke="#E1E3E5" stroke-width="3"/>
<path d="M121.447 100.537V130.347C121.447 130.347 122.666 141.194 121.447 148.032C120.474 153.481 119.697 156.604 117.009 161.674C114.546 166.318 112.37 168.644 108.768 172.789C104.762 177.401 102.357 179.958 97.3572 183.905C93.2364 187.159 85.9465 191.484 85.9465 191.484" stroke="#E1E3E5" stroke-width="3"/>
<path d="M140.25 90.1053C140.25 105.851 135.374 120.05 127.561 130.281C119.748 140.511 109.062 146.711 97.375 146.711C85.6875 146.711 75.0017 140.511 67.1893 130.281C59.3758 120.05 54.5 105.851 54.5 90.1053C54.5 74.3595 59.3758 60.1601 67.1893 49.9291C75.0017 39.6994 85.6875 33.5 97.375 33.5C109.062 33.5 119.748 39.6994 127.561 49.9291C135.374 60.1601 140.25 74.3595 140.25 90.1053Z" fill="#E1E3E5" stroke="#424B50" stroke-width="3"/>
</svg>
