<svg width="232" height="235" viewBox="0 0 232 235" fill="none" xmlns="http://www.w3.org/2000/svg">
<path d="M130.364 233C130.364 233 130.801 231.09 130.364 230.006C129.678 228.302 126.379 227.512 126.379 227.512C126.379 227.512 120.552 226.109 112.431 227.013C107.947 227.512 105.457 227.512 101.97 227.512C100.567 227.512 96.4899 228.011 93.0028 227.013C91.1323 226.477 87.025 224.518 87.025 224.518C87.025 224.518 83.5232 222.023 82.0435 220.028C80.5638 218.032 78.5564 215.537 78.5564 215.537C78.5564 215.537 76.6123 214.016 74.5712 213.542C71.539 212.837 71.1448 212.917 68.0952 213.542C65.8643 213.998 65.1109 214.32 63.6118 216.036C62.5175 217.289 62.0931 219.251 60.6229 220.028C59.5905 220.573 58.7165 220.465 57.634 220.028C55.9319 219.34 56.459 217.318 55.1432 216.036C54.1374 215.057 53.3948 214.697 52.1543 214.041C49.6494 212.716 47.976 212.5 45.1801 212.045C41.3397 211.419 39.2201 211.227 35.2171 212.045C31.2141 212.862 29.2392 215.537 29.2392 215.537C29.2392 215.537 27.998 217.456 26.7484 218.032C24.3448 219.14 22.8974 216.37 20.2725 216.036C18.3425 215.791 17.2262 215.838 15.2909 216.036C12.2865 216.344 10.2884 216.291 7.81862 218.032C6.12741 219.224 4.33155 222.023 4.33155 222.023C4.33155 222.023 2.82614 224.342 2.33893 226.015C1.57633 228.634 2.33893 233 2.33893 233H130.364Z" fill="#E1E3E5" stroke="#424B50" stroke-width="3"/>
<path d="M200.1 19.4582C200.1 29.3785 192.072 37.4165 182.172 37.4165C172.273 37.4165 164.244 29.3785 164.244 19.4582C164.244 9.53797 172.273 1.5 182.172 1.5C192.072 1.5 200.1 9.53797 200.1 19.4582Z" fill="#E1E3E5" stroke="#424B50" stroke-width="3"/>
<path d="M128.372 69.8501C130.364 68.3534 148.928 47.8974 153.91 45.4027C158.891 42.9079 173.836 43.9057 174.832 44.4047C175.828 44.9037 175.828 45.4027 176.825 45.4027H188.78C189.777 45.4027 190.275 44.4047 191.271 44.4047C192.268 44.4047 213.19 44.9037 213.19 44.9037C213.19 44.9037 216.362 45.4028 217.358 48.3963C218.355 51.3897 229.995 116.749 229.995 120.242C229.995 123.734 230.196 125.647 228.002 127.726C226.611 129.045 224.881 129.722 223.519 129.722C222.157 129.722 221.394 129.722 220.032 129.722C220.032 129.722 218.304 128.958 217.358 128.225C216.309 127.412 215.05 125.73 215.05 125.73L213.871 122.238C213.871 122.238 207.395 78.8309 205.718 77.833C204.04 76.835 202.912 76.8351 202.912 80.8266C202.912 84.8182 211.563 227.512 211.563 227.512C211.563 227.512 212.062 230.006 210.567 231.503C209.073 233 204.589 233 204.589 233H198.611C198.611 233 194.128 233 193.63 233C193.132 233 191.139 232.501 190.641 227.512C190.641 227.512 186.694 175.817 184.165 142.694C183.169 140.199 181.683 140.286 179.682 140.199C177.509 140.104 175.198 140.698 174.7 142.694C174.202 144.689 168.224 227.512 168.224 227.512C168.224 232.501 163.243 233 163.243 233H156.268C156.268 233 150.789 233 149.294 231.503C147.8 230.006 147.302 227.512 147.302 227.512C147.302 227.512 155.771 71.8458 155.272 69.8501C154.774 67.8544 153.316 67.4824 153.316 67.4824C153.316 67.4824 151.785 66.857 149.792 68.8522C147.8 70.8475 144.313 77.334 138.833 81.8244C133.353 86.3147 135.844 84.319 129.866 89.3083C123.497 94.6244 100.634 108.767 100.634 108.767V88.8094C100.634 88.8094 103.962 86.8137 106.951 85.3169C108.118 84.7323 108.944 84.319 111.933 82.3233C114.25 80.7758 114.922 80.3276 118.907 77.334C122.892 74.3404 126.379 71.3468 128.372 69.8501Z" fill="#E1E3E5"/>
<path d="M176.825 45.4027C175.828 45.4027 175.828 44.9037 174.832 44.4047C173.836 43.9057 158.891 42.9079 153.91 45.4027C148.928 47.8974 130.364 68.3534 128.372 69.8501C126.379 71.3468 122.892 74.3404 118.907 77.334C114.922 80.3276 114.25 80.7758 111.933 82.3233C108.944 84.319 108.118 84.7323 106.951 85.3169C103.962 86.8137 100.634 88.8094 100.634 88.8094V108.767C100.634 108.767 123.497 94.6244 129.866 89.3083C135.844 84.319 133.353 86.3147 138.833 81.8244C144.313 77.334 147.8 70.8475 149.792 68.8522C151.785 66.857 153.316 67.4824 153.316 67.4824C153.316 67.4824 154.774 67.8544 155.272 69.8501C155.771 71.8458 147.302 227.512 147.302 227.512C147.302 227.512 147.8 230.006 149.294 231.503C150.789 233 156.268 233 156.268 233H163.243C163.243 233 168.224 232.501 168.224 227.512C168.224 227.512 174.202 144.689 174.7 142.694C175.198 140.698 177.509 140.104 179.682 140.199C181.683 140.286 183.169 140.199 184.165 142.694M176.825 45.4027C177.821 45.4027 187.784 45.4027 188.78 45.4027M176.825 45.4027H188.78M188.78 45.4027C189.777 45.4027 190.275 44.4047 191.271 44.4047C192.268 44.4047 213.19 44.9037 213.19 44.9037C213.19 44.9037 216.362 45.4028 217.358 48.3963C218.355 51.3897 229.995 116.749 229.995 120.242C229.995 123.734 230.196 125.647 228.002 127.726C226.611 129.045 224.881 129.722 223.519 129.722C222.157 129.722 221.394 129.722 220.032 129.722C220.032 129.722 218.304 128.958 217.358 128.225C216.309 127.412 215.05 125.73 215.05 125.73L213.871 122.238C213.871 122.238 207.395 78.8309 205.718 77.833C204.04 76.835 202.912 76.8351 202.912 80.8266C202.912 84.8182 211.563 227.512 211.563 227.512C211.563 227.512 212.062 230.006 210.567 231.503C209.073 233 204.589 233 204.589 233H198.611C198.611 233 194.128 233 193.63 233C193.132 233 191.139 232.501 190.641 227.512M190.641 227.512C190.143 222.523 185.659 149.679 184.165 142.694M190.641 227.512C190.641 227.512 186.694 175.817 184.165 142.694" stroke="#424B50" stroke-width="3"/>
<path d="M94.9953 110.762L94.3482 89.579C94.3482 89.579 90.5003 90.379 88.8685 92.0737C87.7798 93.2044 87.3719 94.0759 86.8759 95.5662C86.0762 97.9692 86.2788 99.5909 86.8759 102.052C87.3283 103.917 87.8139 104.941 88.8685 106.543C90.4605 108.961 94.9953 110.762 94.9953 110.762Z" fill="#E1E3E5" stroke="#424B50" stroke-width="3"/>
<rect x="94.9956" y="162.651" width="4.98153" height="2.99357" fill="#E1E3E5"/>
<path d="M94.9957 180.113H82.0437V204.561L85.5308 210.548C85.5308 210.548 87.7003 213.556 89.516 215.038C90.9385 216.2 91.7844 216.883 93.5012 217.533C96.595 218.704 98.8275 218.566 101.97 217.533C103.873 216.908 104.874 216.272 106.453 215.038C108.3 213.596 109.05 212.438 110.438 210.548C112.04 208.368 113.926 204.561 113.926 204.561V180.113H99.9772V200.569H97.4865H94.9957V180.113Z" fill="#E1E3E5"/>
<path d="M95.4938 90.3062L94.9957 180.113V200.569H97.4865H99.9772V180.113V90.3062H95.4938Z" fill="#E1E3E5"/>
<path d="M94.9957 180.113L95.4938 90.3062H99.9772V180.113M94.9957 180.113H82.0437V204.561L85.5308 210.548C85.5308 210.548 87.7003 213.556 89.516 215.038C90.9385 216.2 91.7844 216.883 93.5012 217.533C96.595 218.704 98.8275 218.566 101.97 217.533C103.873 216.908 104.874 216.272 106.453 215.038C108.3 213.596 109.05 212.438 110.438 210.548C112.04 208.368 113.926 204.561 113.926 204.561V180.113H99.9772M94.9957 180.113V200.569H97.4865H99.9772V180.113" stroke="#424B50" stroke-width="3"/>
<path d="M88.5654 75.1012C88.5654 74.8279 88.854 74.0563 89.1014 73.8581C89.1902 73.7869 89.2702 73.5136 89.3239 73.4061C89.3963 73.261 89.4872 73.2134 89.5527 73.0953C89.8911 72.4852 90.3307 71.9684 90.54 71.2872C90.6307 70.992 90.8447 70.6596 90.8785 70.3549C90.8941 70.214 91.0399 70.1007 91.0477 69.9593C91.0514 69.8921 91.0827 69.596 90.9913 69.6768C90.8035 69.8427 90.4988 69.9103 90.4836 70.1854C90.4733 70.3704 90.2821 70.815 90.4836 70.4114" stroke="#E1E3E5" stroke-width="3" stroke-linecap="round"/>
<path d="M90.5395 70.2983C90.5395 70.5645 90.4633 70.895 90.2825 71.0925C90.1167 71.2737 89.6953 71.603 89.64 71.8522C89.5993 72.0358 89.2192 72.8519 89.1855 72.7845" stroke="#E1E3E5" stroke-width="3" stroke-linecap="round"/>
<path d="M89.1292 75.3271C89.1292 75.6308 89.3783 76.0599 89.5805 76.2877C89.7441 76.4721 89.6925 76.7811 89.85 76.9783C89.945 77.0972 90.0799 77.4449 90.0882 77.5873C90.1062 77.8927 90.2631 78.1379 90.3578 78.4223C90.4625 78.7371 90.5148 79.0948 90.6649 79.3954C90.759 79.5839 90.9112 79.9768 90.9345 80.1865C90.9666 80.4761 91.2181 80.9556 91.3419 81.2035C91.4687 81.4574 91.6393 81.6943 91.7682 81.9381C91.9686 82.3174 92.3424 82.623 92.558 83.0116C92.8559 83.5488 93.2326 83.8939 93.6737 84.3112C94.1132 84.7269 94.553 85.2962 94.8836 85.7929C95.1854 86.2463 95.5634 86.8271 96.0683 87.0799" stroke="#E1E3E5" stroke-width="3" stroke-linecap="round"/>
<path d="M95.2788 87.5884C95.3107 87.7321 95.7794 88.2028 95.8994 88.323" stroke="#E1E3E5" stroke-width="3" stroke-linecap="round"/>
<path d="M97.0841 88.4925C97.369 88.4925 97.668 88.436 97.9304 88.436C98.1035 88.436 98.3424 88.4785 98.5071 88.4235C98.6211 88.3854 98.9068 88.337 98.9897 88.254C99.125 88.1185 99.2344 87.9057 99.3972 87.7705C99.6197 87.5859 99.7505 87.2911 99.9613 87.0799C100.327 86.7135 100.625 86.2207 100.945 85.8086C101.37 85.2615 101.834 84.7494 102.274 84.2108C102.334 84.1376 102.903 83.5444 102.726 83.8153C102.538 84.1028 102.358 84.3789 102.149 84.6503C101.802 85.1013 101.339 85.4603 100.933 85.8494C100.585 86.183 100.13 86.5808 99.6511 86.6876C99.2365 86.7798 98.8475 86.6844 98.4381 86.6844C98.1919 86.6844 97.9815 86.6931 97.7486 86.6154C97.4311 86.5094 97.0547 86.5972 96.7456 86.4867C96.5422 86.4139 96.3831 86.3899 96.2066 86.2889C96.0375 86.1921 95.7431 86.0629 96.1533 86.0629C97.0988 86.0629 98.0443 86.0629 98.9897 86.0629C99.7291 86.0629 100.471 86.174 101.046 85.5983C101.355 85.2882 101.653 84.9098 101.992 84.6377C102.209 84.4645 102.338 84.2116 102.556 84.0413C102.702 83.9277 102.826 83.7193 102.976 83.6332C103.19 83.5111 103.365 83.2192 103.544 83.0399C103.733 82.8499 103.852 82.5502 104.051 82.3901C104.134 82.3237 104.283 81.9682 104.308 81.8534C104.364 81.6026 104.633 81.3701 104.744 81.1471C104.807 81.0214 105.084 80.7941 104.945 80.7767C104.835 80.7629 104.692 81.008 104.644 81.078C104.49 81.3002 104.299 81.549 104.108 81.7404C103.931 81.9171 103.784 82.1214 103.6 82.3054C103.451 82.4547 103.152 82.6097 103.064 82.7857" stroke="#E1E3E5" stroke-width="3" stroke-linecap="round"/>
<path d="M103.29 82.1076C103.644 81.5745 104.117 81.0814 104.418 80.5255C104.486 80.3999 104.557 80.2217 104.672 80.13C104.823 80.0087 104.758 80.1802 104.844 80.1802C104.972 80.1802 105.292 79.8195 105.377 79.7345C105.532 79.579 105.768 79.3254 105.828 79.1129C105.878 78.9392 106.044 78.8464 106.054 78.6609C106.062 78.5169 106.152 78.3405 106.211 78.2089C106.532 77.4846 106.72 76.6881 107.154 76.0115C107.216 75.9144 107.289 75.835 107.351 75.7353C107.407 75.6474 107.608 75.4879 107.63 75.4088C107.721 75.093 108.068 74.5527 108.311 74.3101" stroke="#E1E3E5" stroke-width="3" stroke-linecap="round"/>
<path d="M107.521 75.4401C107.521 74.8916 107.145 74.4256 107.126 73.902C107.11 73.4674 106.963 72.9942 106.888 72.5585C106.759 71.8136 106.54 71.1848 106.211 70.5243C106.149 70.401 106.05 70.384 105.913 70.4145C105.79 70.4419 105.823 70.6557 105.828 70.7503C105.851 71.1573 106.313 71.6323 106.493 71.9934C106.767 72.5435 107.052 74.0276 107.803 74.0276C108.514 74.0276 107.788 72.8868 107.634 72.6589C107.451 72.3888 107.224 72.0876 107.129 71.7705C107.059 71.5376 107.05 71.3132 106.944 71.0894C106.86 70.9103 106.676 70.1501 106.505 70.1288C106.405 70.1162 106.306 69.987 106.195 69.9624C106.05 69.9302 105.931 69.9467 105.785 69.8902C105.626 69.8292 105.444 69.7327 105.292 69.6485C105.184 69.5882 105.034 69.8169 105.108 69.8902C105.293 70.0755 105.477 69.4549 105.546 69.4508C105.652 69.4446 106.174 69.4997 106.11 69.5638" stroke="#E1E3E5" stroke-width="3" stroke-linecap="round"/>
<path d="M90.032 69.734C90.032 69.212 90.0274 69.6173 90.3391 69.6742C90.7106 69.742 90.0833 69.3943 90.1448 69.3943" stroke="#E1E3E5" stroke-width="3" stroke-linecap="round"/>
<path d="M91.5552 69.9593C92.0337 69.9593 92.5122 69.9593 92.9906 69.9593C93.1384 69.9593 93.3912 69.9912 93.5172 69.8902C93.7202 69.7276 94.1298 69.7225 94.3885 69.6328C95.4469 69.2659 96.5604 69.5439 97.6481 69.5637C99.9749 69.6061 102.321 69.6768 104.644 69.6768" stroke="#E1E3E5" stroke-width="3" stroke-linecap="round"/>
<path d="M92.1194 69.3945C92.1957 69.3263 92.3461 69.2267 92.4015 69.3378" stroke="#E1E3E5" stroke-width="3" stroke-linecap="round"/>
<path d="M89.2983 74.1405C89.5224 74.1655 89.7014 74.4237 89.9189 74.4237" stroke="#E1E3E5" stroke-width="3" stroke-linecap="round"/>
<path d="M100.787 84.5703C100.794 84.5015 100.86 84.4248 100.891 84.3617C100.921 84.3028 100.979 84.1366 101.058 84.1322C101.185 84.1251 101.319 84.0237 101.433 83.9699C101.639 83.8721 101.842 83.7662 102.058 83.694" stroke="#E1E3E5" stroke-width="3" stroke-linecap="round"/>
<path d="M105.796 71.6411C105.796 71.6966 105.811 71.7507 105.856 71.7867C105.882 71.8075 105.996 71.9986 105.965 71.908" stroke="#E1E3E5" stroke-width="3" stroke-linecap="round"/>
<path d="M105.892 72.1736C105.91 72.3351 106.15 72.3961 106.225 72.5125C106.356 72.7152 106.583 72.8476 106.714 73.045" stroke="#E1E3E5" stroke-width="3" stroke-linecap="round"/>
<path d="M106.062 69.6569C106.147 69.6474 106.342 69.3706 106.376 69.4386" stroke="#E1E3E5" stroke-width="3" stroke-linecap="round"/>
<path d="M106.376 75.2233V75.6599" stroke="#E1E3E5" stroke-width="3" stroke-linecap="round"/>
<path d="M103.962 71.3469L105.457 74.8394L103.464 79.3297L99.4789 84.319H95.9918L92.5047 79.3297L91.0103 74.8394L92.5047 71.3469H97.9844H103.962Z" stroke="#424B50" stroke-width="3"/>
<path d="M109.94 73.7648L107.57 67.8544H98.0876H89.3957L87.0251 73.7648L89.3957 81.3638L95.4938 89.8072H99.9771L106.78 81.3638L109.94 73.7648Z" stroke="#424B50" stroke-width="3"/>
</svg>
